<svg width="64" height="64" viewBox="0 0 64 64" fill="none" xmlns="http://www.w3.org/2000/svg">
<path d="M34.875 38.25C34.185 38.25 33.625 38.81 33.625 39.5C33.625 40.19 34.185 40.75 34.875 40.75C35.565 40.75 36.125 40.19 36.125 39.5C36.125 38.81 35.565 38.25 34.875 38.25Z" fill="#0098CE"/>
<path d="M10.375 35.75C9.68475 35.75 9.125 36.3098 9.125 37V39.5C9.125 40.1902 9.68475 40.75 10.375 40.75C11.0652 40.75 11.625 40.1902 11.625 39.5V37C11.625 36.3098 11.0652 35.75 10.375 35.75Z" fill="#0098CE"/>
<path d="M10.375 43.25C9.68475 43.25 9.125 43.8098 9.125 44.5V47.375C9.125 48.0652 9.68475 48.625 10.375 48.625C11.0652 48.625 11.625 48.0652 11.625 47.375V44.5C11.625 43.8098 11.0652 43.25 10.375 43.25Z" fill="#0098CE"/>
<path d="M10.375 51.125C9.68475 51.125 9.125 51.6848 9.125 52.375V54.875C9.125 55.5652 9.68475 56.125 10.375 56.125C11.0652 56.125 11.625 55.5652 11.625 54.875V52.375C11.625 51.6848 11.0652 51.125 10.375 51.125Z" fill="#0098CE"/>
<path d="M15.375 35.75C14.6848 35.75 14.125 36.3098 14.125 37V39.5C14.125 40.1902 14.6848 40.75 15.375 40.75C16.0652 40.75 16.625 40.1902 16.625 39.5V37C16.625 36.3098 16.0652 35.75 15.375 35.75Z" fill="#0098CE"/>
<path d="M15.375 43.25C14.6848 43.25 14.125 43.8098 14.125 44.5V47.375C14.125 48.0652 14.6848 48.625 15.375 48.625C16.0652 48.625 16.625 48.0652 16.625 47.375V44.5C16.625 43.8098 16.0652 43.25 15.375 43.25Z" fill="#0098CE"/>
<path d="M15.375 51.125C14.6848 51.125 14.125 51.6848 14.125 52.375V54.875C14.125 55.5652 14.6848 56.125 15.375 56.125C16.0652 56.125 16.625 55.5652 16.625 54.875V52.375C16.625 51.6848 16.0652 51.125 15.375 51.125Z" fill="#0098CE"/>
<path d="M19.125 15.75H6.625C5.93475 15.75 5.375 16.3098 5.375 17C5.375 17.9113 5.375 31.2288 5.375 32C5.375 32.6903 5.93475 33.25 6.625 33.25H19.125C19.8153 33.25 20.375 32.6903 20.375 32C20.375 31.2288 20.375 17.9111 20.375 17C20.375 16.3098 19.8153 15.75 19.125 15.75ZM17.875 30.75H7.875V28.25H17.875V30.75ZM17.875 25.75H7.875V23.25H17.875V25.75ZM17.875 20.75H7.875V18.25H17.875V20.75Z" fill="#0098CE"/>
<path d="M62.75 28.25H25.75V9.125C25.75 8.43475 25.1903 7.875 24.5 7.875H12.875V3.75C12.875 3.05975 12.3153 2.5 11.625 2.5C10.9347 2.5 10.375 3.05975 10.375 3.75V7.875H7.875V1.25C7.875 0.55975 7.31525 0 6.625 0C5.93475 0 5.375 0.55975 5.375 1.25V7.875H1.25C0.55975 7.875 0 8.43475 0 9.125V62.75C0 63.4403 0.55975 64 1.25 64C1.89675 64 61.5536 64 62.75 64C63.4403 64 64 63.4403 64 62.75V29.5C64 28.8097 63.4403 28.25 62.75 28.25ZM23.25 29.5V61.5H2.5V10.375H23.25V29.5ZM38.625 61.5H33.625V51.125H38.625V61.5ZM46.125 61.5H41.125V51.125H46.125V61.5ZM53.625 61.5H48.625V51.125H53.625V61.5ZM61.5 61.5H56.125V49.875C56.125 49.1847 55.5653 48.625 54.875 48.625C54.1314 48.625 33.5345 48.625 32.375 48.625C31.6847 48.625 31.125 49.1847 31.125 49.875V61.5H25.75V30.75H61.5V61.5Z" fill="#0098CE"/>
<path d="M57.375 33.25H29.875C29.1848 33.25 28.625 33.8098 28.625 34.5V44.5C28.625 45.1903 29.1848 45.75 29.875 45.75H57.375C58.0653 45.75 58.625 45.1903 58.625 44.5V34.5C58.625 33.8098 58.0653 33.25 57.375 33.25ZM56.125 43.25H31.125V35.75H56.125V43.25Z" fill="#0098CE"/>
<path d="M52.375 38.25H39.875C39.1848 38.25 38.625 38.8098 38.625 39.5C38.625 40.1902 39.1848 40.75 39.875 40.75H52.375C53.0653 40.75 53.625 40.1902 53.625 39.5C53.625 38.8098 53.0653 38.25 52.375 38.25Z" fill="#0098CE"/>
<path d="M49.5 5.75C47.4808 5.75 45.5835 6.74838 44.4207 8.36063C44.0374 8.28775 43.6462 8.25 43.25 8.25C40.2318 8.25 37.7063 10.4008 37.1256 13.25H37C34.9323 13.25 33.25 14.9323 33.25 17C33.25 19.0677 34.9323 20.75 37 20.75H49.5C51.5677 20.75 53.25 19.0677 53.25 17C53.25 16.9999 53.25 16.9996 53.25 16.9995C54.8099 15.8285 55.75 13.9811 55.75 12C55.75 8.55375 52.9463 5.75 49.5 5.75ZM49.5 18.25H37C36.3108 18.25 35.75 17.6892 35.75 17C35.75 16.3108 36.3108 15.75 37 15.75H38.25C38.9402 15.75 39.5 15.1903 39.5 14.5C39.5 12.4323 41.1823 10.75 43.25 10.75C43.7035 10.75 44.1445 10.8295 44.5609 10.9862C44.5619 10.9866 44.5629 10.987 44.5638 10.9874C46.021 11.5315 47 12.9431 47 14.5C47 15.1903 47.5597 15.75 48.25 15.75H49.5C50.071 15.75 50.5689 16.135 50.7105 16.6854C50.7367 16.7878 50.75 16.8936 50.75 17C50.75 17.6892 50.1893 18.25 49.5 18.25ZM52.294 14.5002C51.5999 13.7251 50.5955 13.25 49.5 13.25H49.3724C49.0489 11.6814 48.1279 10.2887 46.8214 9.37387C47.5138 8.664 48.4669 8.25 49.5 8.25C51.5677 8.25 53.25 9.93225 53.25 12C53.25 12.936 52.9 13.8224 52.294 14.5002Z" fill="#0098CE"/>
</svg>
