<svg width="64" height="64" viewBox="0 0 64 64" fill="none" xmlns="http://www.w3.org/2000/svg">
<path d="M35.0968 34.0645H33.0323V36.129H30.9678V38.1935H33.0323V40.2581H35.0968V38.1935H37.1613V36.129H35.0968V34.0645Z" fill="#0098CE"/>
<path d="M64 19.6129V9.29032H58.8387V5.40474L61.5413 0H49.9425L52.6452 5.40474V9.29032H50.0065C49.2903 8.062 47.9733 7.22581 46.4516 7.22581H29.9355C27.6583 7.22581 25.8064 9.07762 25.8064 11.3548H20.6452V7.22581H5.16129C2.31552 7.22581 0 9.54133 0 12.3871V13.4194H11.3548V15.4839H0V16.5161C0 19.3619 2.31552 21.6774 5.16129 21.6774H20.6452V17.5484H25.8064C25.8064 19.8256 27.6583 21.6774 29.9355 21.6774H30.5963L27.1794 32.6134C26.3135 33.9178 25.8064 35.4808 25.8064 37.1613C25.8064 41.7147 29.5111 45.4194 34.0645 45.4194C34.4723 45.4194 34.8705 45.38 35.2631 45.3221L36.934 53.6774H35.4909L33.4264 57.8064H30.9677V64H64V57.8064H61.5413L59.4768 53.6774H57.8064V45.8674L42.4773 36.6699L46.2243 21.6774H46.4516C47.9733 21.6774 49.2903 20.8412 50.0065 19.6129H52.6452V22.4662L49.9425 27.871H61.5413L58.8387 22.4662V19.6129H64ZM2.24093 11.3548C2.66734 10.1532 3.81502 9.29032 5.16129 9.29032H18.5806V11.3548H2.24093ZM18.5806 19.6129H5.16129C3.81502 19.6129 2.66734 18.75 2.24093 17.5484H18.5806V19.6129ZM20.6452 15.4839H13.4194V13.4194H25.8064V15.4839H20.6452ZM27.871 37.1613C27.871 33.7455 30.6487 30.9677 34.0645 30.9677C37.4803 30.9677 40.2581 33.7455 40.2581 37.1613C40.2581 40.5771 37.4803 43.3548 34.0645 43.3548C30.6487 43.3548 27.871 40.5771 27.871 37.1613ZM42.1411 38.876L48.9592 42.9667L37.9168 48.063L37.2596 44.7752C39.7203 43.7389 41.5751 41.5433 42.1411 38.876ZM50.9531 44.1633L54.5393 46.3155L38.9521 53.2429L38.3327 50.1452L51.0131 44.2933L50.9531 44.1633ZM61.9355 61.9355H33.0323V59.871H61.9355V61.9355ZM59.2329 57.8064H35.7349L36.7671 55.7419H58.2006L59.2329 57.8064ZM43.0575 53.6774L55.7419 48.0403V53.6774H43.0575ZM41.2429 33.0953C39.8216 30.5963 37.1396 28.9032 34.0645 28.9032C32.6678 28.9032 31.3528 29.254 30.1986 29.8695L32.7586 21.6774H44.0983L41.2429 33.0953ZM48.5161 17.5484C48.5161 18.687 47.5902 19.6129 46.4516 19.6129H29.9355C28.7969 19.6129 27.871 18.687 27.871 17.5484V11.3548C27.871 10.2162 28.7969 9.29032 29.9355 9.29032H46.4516C47.5902 9.29032 48.5161 10.2162 48.5161 11.3548V17.5484ZM58.2006 2.06452L57.1683 4.12903H54.3155L53.2833 2.06452H58.2006ZM54.7097 6.19355H56.7742V9.29032H54.7097V6.19355ZM61.9355 11.3548V13.4194H50.5806V11.3548H61.9355ZM50.5806 15.4839H61.9355V17.5484H50.5806V15.4839ZM53.2833 25.8064L54.3155 23.7419H57.1683L58.2006 25.8064H53.2833ZM56.7742 21.6774H54.7097V19.6129H56.7742V21.6774Z" fill="#0098CE"/>
<path d="M34.0645 11.3548C32.3574 11.3548 30.9678 12.7445 30.9678 14.4516C30.9678 16.1588 32.3574 17.5484 34.0645 17.5484C35.7717 17.5484 37.1613 16.1588 37.1613 14.4516C37.1613 12.7445 35.7717 11.3548 34.0645 11.3548ZM34.0645 15.4839C33.495 15.4839 33.0323 15.0202 33.0323 14.4516C33.0323 13.8831 33.495 13.4194 34.0645 13.4194C34.6341 13.4194 35.0968 13.8831 35.0968 14.4516C35.0968 15.0202 34.6341 15.4839 34.0645 15.4839Z" fill="#0098CE"/>
<path d="M42.3226 11.3548C40.6154 11.3548 39.2258 12.7445 39.2258 14.4516C39.2258 16.1588 40.6154 17.5484 42.3226 17.5484C44.0298 17.5484 45.4194 16.1588 45.4194 14.4516C45.4194 12.7445 44.0298 11.3548 42.3226 11.3548ZM42.3226 15.4839C41.753 15.4839 41.2903 15.0202 41.2903 14.4516C41.2903 13.8831 41.753 13.4194 42.3226 13.4194C42.8922 13.4194 43.3549 13.8831 43.3549 14.4516C43.3549 15.0202 42.8922 15.4839 42.3226 15.4839Z" fill="#0098CE"/>
<path d="M21.6033 46.9814L23.2732 44.9808L19.0192 40.7258L17.0186 42.3967C16.5696 42.1709 16.1053 41.9788 15.6275 41.8211L15.3952 39.2258H9.37903L9.14567 41.8221C8.66784 41.9798 8.20312 42.1719 7.75454 42.3982L5.75403 40.7268L1.5 44.9819L3.16986 46.9824C2.94405 47.4304 2.75202 47.8947 2.59425 48.3725L0 48.6048V54.621L2.59627 54.8543C2.75302 55.3312 2.94607 55.7969 3.17238 56.2445L1.50202 58.245L5.75605 62.5L7.75655 60.8291C8.20564 61.0549 8.66986 61.247 9.14768 61.4047L9.37903 64H15.3952L15.6285 61.4037C16.1063 61.246 16.5711 61.0539 17.0197 60.8276L19.0202 62.499L23.2742 58.244L21.6043 56.2434C21.8301 55.7954 22.0222 55.3312 22.1799 54.8533L24.7742 54.621V48.6048L22.1779 48.3715C22.0212 47.8937 21.8281 47.4289 21.6033 46.9814ZM22.7097 52.7339L20.5635 52.9269L20.3841 53.6371C20.189 54.4123 19.8826 55.1527 19.4723 55.8367L19.0968 56.4657L20.4788 58.1205L18.8947 59.7056L17.2389 58.3226L16.6109 58.6981C15.9279 59.1069 15.1875 59.4138 14.4103 59.6099L13.7001 59.7893L13.5081 61.9355H11.2661L11.0731 59.7893L10.3629 59.6099C9.58568 59.4138 8.84526 59.1069 8.1623 58.6981L7.53528 58.3226L5.87954 59.7046L4.29536 58.1195L5.67742 56.4657L5.30192 55.8367C4.89315 55.1527 4.58619 54.4123 4.39012 53.6371L4.21069 52.9269L2.06452 52.7339V50.4919L4.21069 50.2989L4.39012 49.5887C4.58518 48.8135 4.89163 48.0731 5.30192 47.3891L5.67742 46.7601L4.29536 45.1053L5.87954 43.5202L7.53528 44.9032L8.16331 44.5277C8.84627 44.119 9.58669 43.812 10.3639 43.6159L11.0741 43.4365L11.2661 41.2903H13.5081L13.7011 43.4365L14.4113 43.6159C15.1885 43.812 15.9289 44.119 16.6119 44.5277L17.2389 44.9032L18.8947 43.5212L20.4788 45.1064L19.0968 46.7601L19.4723 47.3891C19.881 48.0731 20.188 48.8135 20.3841 49.5887L20.5635 50.2989L22.7097 50.4919V52.7339Z" fill="#0098CE"/>
<path d="M12.3872 45.4194C8.97133 45.4194 6.1936 48.1971 6.1936 51.6129C6.1936 55.0287 8.97133 57.8064 12.3872 57.8064C15.803 57.8064 18.5807 55.0287 18.5807 51.6129C18.5807 48.1971 15.803 45.4194 12.3872 45.4194ZM12.3872 55.7419C10.1099 55.7419 8.25812 53.8901 8.25812 51.6129C8.25812 49.3357 10.1099 47.4839 12.3872 47.4839C14.6644 47.4839 16.5162 49.3357 16.5162 51.6129C16.5162 53.8901 14.6644 55.7419 12.3872 55.7419Z" fill="#0098CE"/>
<path d="M11.3549 23.7419H13.4194V25.8065H11.3549V23.7419Z" fill="#0098CE"/>
<path d="M11.3549 27.871H13.4194V29.9355H11.3549V27.871Z" fill="#0098CE"/>
<path d="M11.3549 32H13.4194V34.0645H11.3549V32Z" fill="#0098CE"/>
</svg>
