<svg width="64" height="64" viewBox="0 0 64 64" fill="none" xmlns="http://www.w3.org/2000/svg">
<path d="M25.75 25.75C25.75 26.4404 25.1904 27 24.5 27C23.8096 27 23.25 26.4404 23.25 25.75C23.25 25.0596 23.8096 24.5 24.5 24.5C25.1904 24.5 25.75 25.0596 25.75 25.75Z" fill="#0098CE"/>
<path d="M32 64C49.2686 64 64 49.2549 64 32C64 14.7622 49.2886 0 32 0C14.7607 0 0 14.7129 0 32C0 49.2378 14.7114 64 32 64ZM32 2.5C47.9907 2.5 61.5 16.0093 61.5 32C61.5 47.9907 47.9907 61.5 32 61.5C16.0093 61.5 2.5 47.9907 2.5 32C2.5 16.0093 16.0093 2.5 32 2.5Z" fill="#0098CE"/>
<path d="M32 58.625C46.4507 58.625 58.625 46.5049 58.625 32C58.625 17.5981 46.5483 5.375 32 5.375C17.5337 5.375 5.375 17.5122 5.375 32C5.375 46.4653 17.5122 58.625 32 58.625ZM30.75 7.90918V12C30.75 12.6904 31.3096 13.25 32 13.25C32.6904 13.25 33.25 12.6904 33.25 12V7.90918C38.8711 8.2124 44.0537 10.5469 48.0601 14.1724L45.2583 16.9736C44.7705 17.4619 44.7705 18.2534 45.2583 18.7412C45.7466 19.2295 46.5381 19.2295 47.0264 18.7412L49.8276 15.9399C53.4531 19.9463 55.7876 25.1289 56.0908 30.75H52C51.3096 30.75 50.75 31.3096 50.75 32C50.75 32.6904 51.3096 33.2485 52 33.2485H56.0908C55.7876 38.8696 53.4531 44.0537 49.8276 48.0601L47.0264 45.2588C46.5381 44.7705 45.7466 44.7705 45.2583 45.2588C44.77 45.7466 44.77 46.5381 45.2583 47.0264L48.0596 49.8276C44.0537 53.4531 38.8711 55.7876 33.25 56.0908V52C33.25 51.3096 32.6904 50.75 32 50.75C31.3096 50.75 30.75 51.3096 30.75 52V56.0908C25.1289 55.7876 19.9463 53.4531 15.9399 49.8276L19.625 46.1426C20.1133 45.6543 20.1133 44.8628 19.625 44.3745C19.1367 43.8867 18.3457 43.8867 17.8574 44.3745L14.1724 48.0596C10.5469 44.0537 8.2124 38.8711 7.90918 33.25H11.6216L16.3574 36.4067C18.251 43.1079 24.4297 48.25 32 48.25C40.9604 48.25 48.25 40.9604 48.25 32C48.25 23.0396 40.9604 15.75 32 15.75C24.4365 15.75 18.2524 20.8872 16.3574 27.5933L11.6216 30.75H7.90918C8.2124 25.1289 10.5469 19.9463 14.1724 15.9399L16.9736 18.7412C17.4619 19.2295 18.2534 19.2295 18.7417 18.7412C19.23 18.2534 19.23 17.4619 18.7417 16.9736L15.9404 14.1724C19.9463 10.5469 25.1289 8.2124 30.75 7.90918ZM14.2534 32L18.1372 29.4111C18.396 29.2388 18.5811 28.9756 18.6567 28.6738C20.1865 22.5361 25.6733 18.25 32 18.25C39.5815 18.25 45.75 24.4185 45.75 32C45.75 39.5815 39.5815 45.75 32 45.75C25.6733 45.75 20.1865 41.4639 18.6567 35.3262C18.5811 35.0244 18.396 34.7612 18.1372 34.5889L14.2534 32Z" fill="#0098CE"/>
<path d="M32 43.25C38.2031 43.25 43.25 38.2031 43.25 32C43.25 25.7969 38.2031 20.75 32 20.75C30.6177 20.75 29.2651 20.9995 27.9805 21.4912C27.3359 21.7383 27.0132 22.4609 27.2603 23.106C27.5068 23.7505 28.23 24.0728 28.8745 23.8262C29.873 23.4438 30.9243 23.25 32 23.25C36.8247 23.25 40.75 27.1753 40.75 32C40.75 36.8247 36.8247 40.75 32 40.75C27.1753 40.75 23.25 36.8247 23.25 32C23.25 31.4624 23.2993 30.9243 23.3965 30.4004C23.5225 29.7217 23.0742 29.0693 22.3955 28.9434C21.7168 28.8169 21.0645 29.2656 20.9385 29.9443C20.8135 30.6182 20.75 31.3096 20.75 32C20.75 38.2031 25.7969 43.25 32 43.25Z" fill="#0098CE"/>
</svg>
