<svg width="64" height="64" viewBox="0 0 64 64" fill="none" xmlns="http://www.w3.org/2000/svg">
<path d="M63.8265 8.5603H41.63L32 0L22.3699 8.5603H0.173462V12.1659L2.6549 13.9575C2.389 14.5006 2.22678 15.1022 2.22678 15.7469C2.22678 18.0117 4.06861 19.8536 6.33343 19.8536C6.69584 19.8536 7.0408 19.792 7.37549 19.7027C7.37344 19.754 7.36009 19.8022 7.36009 19.8536C7.36009 22.1184 9.20192 23.9602 11.4667 23.9602C12.6977 23.9602 13.7911 23.4048 14.5447 22.5444L18.8597 25.6614L13.5365 55.6081L13.5334 55.7867H11.4667V64H52.5332V55.7867H50.4799L45.1351 25.6645L48.8639 22.9715C49.5805 23.5793 50.4953 23.9602 51.5065 23.9602C53.7713 23.9602 55.6132 22.1184 55.6132 19.8536C55.6132 19.8022 55.5998 19.754 55.5978 19.7027C55.9325 19.792 56.2774 19.8536 56.6398 19.8536C58.9046 19.8536 60.7465 18.0117 60.7465 15.7469C60.7465 15.3229 60.6633 14.9215 60.5432 14.5365L63.8265 12.1659V8.5603ZM44.1115 41.4135L39.8118 46.3281L34.5892 41.4135H37.1333V39.3601H34.0533L38.7975 33.0349L44.4996 39.3601H39.1866V41.4135H44.1115ZM39.9535 49.2828L46.864 55.7867H34.2617L39.9535 49.2828ZM40.0531 31.3604L43.2984 27.033L45.054 36.9095L40.0531 31.3604ZM38.6517 29.806L34.3079 24.9869H42.2666L38.6517 29.806ZM33.9024 22.9336L37.7185 17.1216L41.9555 22.9336H33.9024ZM41.9483 19.4378L38.9227 15.288L40.7235 12.5468L41.9483 19.4378ZM37.6312 13.516L35.5152 10.6136H39.5367L37.6312 13.516ZM33.0266 3.66005L38.5398 8.5603H33.0266V3.66005ZM33.0266 10.6855L36.4269 15.3496L33.0266 20.526V10.6855ZM33.0266 26.6326L37.3971 31.4805L33.0266 37.3078V26.6326ZM33.0266 42.7635L38.4577 47.8753L33.0266 54.0814V42.7635ZM30.9733 3.66005V8.5603H25.4601L30.9733 3.66005ZM25.1747 32.9548L29.9538 39.3601H19.3238L25.1747 32.9548ZM18.985 36.6857L20.7118 26.9745L23.9232 31.2793L18.985 36.6857ZM29.4107 41.4135L24.1891 46.3281L19.8884 41.4135H29.4107ZM29.7382 55.7867H17.136L24.0464 49.2828L29.7382 55.7867ZM25.5423 47.8753L30.9733 42.7635V54.0814L25.5423 47.8753ZM26.5833 31.4127L30.9733 26.6069V37.2955L26.5833 31.4127ZM28.4323 10.6136L26.2989 13.4842L24.3996 10.6136H28.4323ZM30.9733 10.6372V20.5486L27.5042 15.3055L30.9733 10.6372ZM23.2641 12.6177L24.9971 15.2367L22.1071 19.1267L23.2641 12.6177ZM26.2014 17.059L30.0893 22.9336H21.837L26.2014 17.059ZM29.6715 24.9869L25.3338 29.7362L21.7898 24.9869H29.6715ZM6.33343 17.8002C5.20102 17.8002 4.28011 16.8793 4.28011 15.7469C4.28011 14.6145 5.20102 13.6936 6.33343 13.6936C7.46584 13.6936 8.38675 14.6145 8.38675 15.7469C8.38675 16.8793 7.46584 17.8002 6.33343 17.8002ZM11.4667 21.9069C10.3343 21.9069 9.41341 20.986 9.41341 19.8536C9.41341 18.7212 10.3343 17.8002 11.4667 17.8002C12.5991 17.8002 13.5201 18.7212 13.5201 19.8536C13.5201 20.986 12.5991 21.9069 11.4667 21.9069ZM15.4861 20.6924C15.5426 20.4213 15.5734 20.141 15.5734 19.8536C15.5734 17.5888 13.7315 15.7469 11.4667 15.7469C11.1043 15.7469 10.7594 15.8085 10.4247 15.8978C10.4267 15.8465 10.4401 15.7983 10.4401 15.7469C10.4401 13.4821 8.59824 11.6403 6.33343 11.6403C5.45974 11.6403 4.65278 11.9195 3.98648 12.3856L2.22678 11.1146V10.6136H21.5352L19.2591 23.4161L15.4861 20.6924ZM17.9788 42.3477L22.6933 47.7356L15.8814 54.1471L17.9788 42.3477ZM50.4799 61.9467H13.5201V57.84H50.4799V61.9467ZM46.0211 42.3477L48.1185 54.1471L41.3066 47.7356L46.0211 42.3477ZM51.5065 21.9069C50.3741 21.9069 49.4532 20.986 49.4532 19.8536C49.4532 18.7212 50.3741 17.8002 51.5065 17.8002C52.6389 17.8002 53.5598 18.7212 53.5598 19.8536C53.5598 20.986 52.6389 21.9069 51.5065 21.9069ZM56.6398 17.8002C55.5074 17.8002 54.5865 16.8793 54.5865 15.7469C54.5865 14.6145 55.5074 13.6936 56.6398 13.6936C57.7722 13.6936 58.6931 14.6145 58.6931 15.7469C58.6931 16.8793 57.7722 17.8002 56.6398 17.8002ZM61.7731 11.1146L59.4662 12.7809C58.7291 12.0787 57.7363 11.6403 56.6398 11.6403C54.375 11.6403 52.5332 13.4821 52.5332 15.7469C52.5332 15.7983 52.5465 15.8465 52.5486 15.8978C52.2139 15.8085 51.8689 15.7469 51.5065 15.7469C49.2417 15.7469 47.3999 17.5888 47.3999 19.8536C47.3999 20.3638 47.5046 20.8464 47.675 21.2971L44.7367 23.4192L44.7141 23.2888L44.7419 23.2682L44.7008 23.2118L42.4647 10.6136H61.7731V11.1146Z" fill="#0098CE"/>
</svg>
