<svg width="64" height="64" viewBox="0 0 64 64" fill="none" xmlns="http://www.w3.org/2000/svg">
<g clip-path="url(#clip0)">
<path d="M57.1157 37.1089L48.3892 35.1128C50.0088 33.4951 51.0122 31.2603 51.0122 28.7959V24.6035H52.1401C52.8306 24.6035 53.3901 24.0439 53.3901 23.3535V18.5698C53.3901 18.0215 53.0361 17.5562 52.5439 17.3882V17.0684C52.5439 11.7061 48.4893 7.27539 43.2852 6.67529C43.1421 6.14258 42.6572 5.75 42.0791 5.75C41.5015 5.75 41.0166 6.14258 40.873 6.67529C36.6128 7.1665 33.1255 10.2251 32 14.2607C30.874 10.2251 27.3867 7.1665 23.1265 6.67529C22.9834 6.14258 22.4985 5.75 21.9204 5.75C21.3428 5.75 20.8579 6.14258 20.7148 6.67529C15.5107 7.27539 11.4556 11.7061 11.4556 17.0684V17.3882C10.9639 17.5562 10.6099 18.0215 10.6099 18.5698V23.3535C10.6099 24.0439 11.1694 24.6035 11.8599 24.6035H12.9878V28.7959C12.9878 31.2603 13.9912 33.4951 15.6108 35.1128L6.88379 37.1089C2.83105 38.0361 0 41.5874 0 45.7456V56.875C0 57.5654 0.55957 58.125 1.25 58.125H62.75C63.4404 58.125 64 57.5654 64 56.875V45.7456C64 41.5874 61.1689 38.0361 57.1157 37.1089ZM11.375 50.375C10.6846 50.375 10.125 50.9346 10.125 51.625V55.625H7.62207V39.5049L17.1953 37.3149V40.1372C17.1953 42.3101 18.6699 44.144 20.6709 44.6938V55.625H12.625V51.625C12.625 50.9346 12.0654 50.375 11.375 50.375ZM13.1099 22.1035V19.8198H30.7319V22.1035H13.1099ZM50.8901 22.1035H33.2681V19.8198H50.8901V22.1035ZM30.8535 24.6035H31.9814C31.9878 24.6035 31.9937 24.6025 32 24.6025C32.0059 24.603 32.0122 24.6035 32.0181 24.6035H33.146V28.7959C33.146 31.2603 34.1494 33.4951 35.769 35.1128L31.9995 35.9751L28.2305 35.1128C29.8501 33.4951 30.8535 31.2603 30.8535 28.7959V24.6035ZM43.0781 42.127C42.3926 40.5825 41.2744 39.2671 39.8535 38.3379V37.4478C40.5654 37.6313 41.311 37.7285 42.0791 37.7285C42.8472 37.7285 43.5933 37.6309 44.3047 37.4478V40.1372C44.3047 40.9912 43.8135 41.7563 43.0781 42.127ZM21.9209 42.3628C20.6938 42.3628 19.6953 41.3643 19.6953 40.1372V37.4478C20.4067 37.6309 21.1528 37.7285 21.9209 37.7285C22.689 37.7285 23.4346 37.6309 24.1465 37.4478V40.1372C24.1465 41.3643 23.1479 42.3628 21.9209 42.3628ZM23.1709 44.6938C25.1714 44.144 26.6465 42.3101 26.6465 40.1372V37.3149L36.2197 39.5049V55.625H23.1709V44.6938ZM38.7197 40.5938C40.3325 41.7578 41.3413 43.6431 41.3413 45.7456V55.625H38.7197V40.5938ZM43.7622 44.5527C45.5625 43.8652 46.8047 42.1143 46.8047 40.1372V37.3149L56.3779 39.5049V55.625H43.8413V45.7456C43.8413 45.3413 43.814 44.9434 43.7622 44.5527ZM48.5122 28.7959C48.5122 32.3428 45.6265 35.2285 42.0796 35.2285C38.5322 35.2285 35.6465 32.3428 35.6465 28.7959V24.6035H48.5122V28.7959ZM34.1143 17.0688C34.1143 13.1021 37.0293 9.8042 40.8296 9.20264V13.9375C40.8296 14.6279 41.3892 15.1875 42.0796 15.1875C42.7695 15.1875 43.3296 14.6279 43.3296 13.9375V9.20264C47.1294 9.8042 50.0444 13.1021 50.0444 17.0688V17.3203H34.1143V17.0688ZM13.9556 17.0688C13.9556 13.1021 16.8706 9.8042 20.6709 9.20264V13.9375C20.6709 14.6279 21.2305 15.1875 21.9209 15.1875C22.6113 15.1875 23.1709 14.6279 23.1709 13.9375V9.20264C26.9707 9.8042 29.8857 13.1021 29.8857 17.0688V17.3203H13.9556V17.0688ZM15.4878 28.7959V24.6035H28.3535V28.7959C28.3535 32.3428 25.4678 35.2285 21.9209 35.2285C18.3735 35.2285 15.4878 32.3428 15.4878 28.7959ZM2.5 45.7456C2.5 43.6431 3.50928 41.7578 5.12207 40.5938V55.625H2.5V45.7456ZM61.5 55.625H58.8779V40.5938C60.4907 41.7578 61.5 43.6431 61.5 45.7456V55.625Z" fill="#0098CE"/>
<path d="M48.1616 47.7896H53.1006C53.791 47.7896 54.3506 47.23 54.3506 46.5396C54.3506 45.8496 53.791 45.2896 53.1006 45.2896H48.1616C47.4712 45.2896 46.9116 45.8496 46.9116 46.5396C46.9116 47.23 47.4712 47.7896 48.1616 47.7896Z" fill="#0098CE"/>
<path d="M12.2588 46.1162C12.0264 45.8838 11.7036 45.75 11.375 45.75C11.0464 45.75 10.7236 45.8838 10.4912 46.1162C10.2588 46.3486 10.125 46.6714 10.125 47C10.125 47.3286 10.2588 47.6514 10.4912 47.8838C10.7236 48.1162 11.0464 48.25 11.375 48.25C11.7036 48.25 12.0264 48.1162 12.2588 47.8838C12.4912 47.6514 12.625 47.3286 12.625 47C12.625 46.6714 12.4912 46.3486 12.2588 46.1162Z" fill="#0098CE"/>
<path d="M32.9419 45.2896H28.0029C27.313 45.2896 26.7529 45.8496 26.7529 46.5396C26.7529 47.23 27.313 47.7896 28.0029 47.7896H32.9419C33.6323 47.7896 34.1919 47.23 34.1919 46.5396C34.1919 45.8496 33.6323 45.2896 32.9419 45.2896Z" fill="#0098CE"/>
</g>
<defs>
<clipPath id="clip0">
<rect width="64" height="64" fill="white"/>
</clipPath>
</defs>
</svg>
