<svg width="18" height="18" viewBox="0 0 18 18" fill="none" xmlns="http://www.w3.org/2000/svg">
<g clip-path="url(#clip0)">
<path d="M6.61562 3.48626C6.61562 3.93986 6.61562 5.96449 6.61562 5.96449H4.79999V8.99489H6.61562V18.0002H10.3453V8.99514H12.8481C12.8481 8.99514 13.0825 7.54209 13.1961 5.95332C12.8704 5.95332 10.3594 5.95332 10.3594 5.95332C10.3594 5.95332 10.3594 4.19033 10.3594 3.88131C10.3594 3.57163 10.7661 3.15506 11.168 3.15506C11.5692 3.15506 12.4159 3.15506 13.2001 3.15506C13.2001 2.74247 13.2001 1.31687 13.2001 0.000244151C12.1532 0.000244151 10.9621 0.000244151 10.4371 0.000244151C6.52343 3.49046e-05 6.61562 3.03345 6.61562 3.48626Z" fill="white"/>
</g>
<defs>
<clipPath id="clip0">
<rect width="18" height="18" fill="white"/>
</clipPath>
</defs>
</svg>
