<svg width="64" height="64" viewBox="0 0 64 64" fill="none" xmlns="http://www.w3.org/2000/svg">
<path d="M55.33 28.5549C54.6413 28.5549 54.08 29.1162 54.08 29.8063V39.8049C54.08 40.4951 54.6413 41.0563 55.33 41.0563C56.0188 41.0563 56.58 40.4951 56.58 39.8049V29.8063C56.58 29.1163 56.0188 28.5549 55.33 28.5549Z" fill="#0098CE"/>
<path d="M55.33 43.5563C54.6413 43.5563 54.08 44.1161 54.08 44.8049C54.08 45.495 54.6413 46.0549 55.33 46.0549C56.0188 46.0549 56.58 45.495 56.58 44.8049C56.58 44.1163 56.0188 43.5563 55.33 43.5563Z" fill="#0098CE"/>
<path d="M55.33 48.5549C54.6413 48.5549 54.08 49.1162 54.08 49.8063V59.5788C54.08 60.2676 54.6413 60.8288 55.33 60.8288C56.0188 60.8288 56.58 60.2676 56.58 59.5788V49.8063C56.58 49.1163 56.0188 48.5549 55.33 48.5549Z" fill="#0098CE"/>
<path d="M62.75 26.0507C62.0596 26.0507 61.5 26.6104 61.5 27.3007V29.8007C61.5 30.4909 62.0596 31.0507 62.75 31.0507C63.4404 31.0507 64 30.4909 64 29.8007V27.3007C64 26.6104 63.4404 26.0507 62.75 26.0507Z" fill="#0098CE"/>
<path d="M62.75 33.505C62.06 33.505 61.5 34.0649 61.5 34.755C61.5 35.445 62.06 36.005 62.75 36.005C63.44 36.005 64 35.445 64 34.755C64 34.065 63.44 33.505 62.75 33.505Z" fill="#0098CE"/>
<path d="M62.75 38.46C62.0612 38.46 61.5 39.02 61.5 39.71V44.6637C61.5 45.3538 62.0612 45.9137 62.75 45.9137C63.4388 45.9137 64 45.3538 64 44.6637V39.71C64 39.02 63.4388 38.46 62.75 38.46Z" fill="#0098CE"/>
<path d="M62.75 48.3688C62.0612 48.3688 61.5 48.9299 61.5 49.6188C61.5 50.3075 62.0612 50.8688 62.75 50.8688C63.4388 50.8688 64 50.3075 64 49.6188C64 48.9299 63.4388 48.3688 62.75 48.3688Z" fill="#0098CE"/>
<path d="M62.75 53.3235C62.0596 53.3235 61.5 53.8832 61.5 54.5735V57.0735C61.5 57.7637 62.0596 58.3235 62.75 58.3235C63.4404 58.3235 64 57.7637 64 57.0735V54.5735C64 53.8831 63.4404 53.3235 62.75 53.3235Z" fill="#0098CE"/>
<path d="M1.37622 56.0513C0.686221 56.0513 0.126221 56.6111 0.126221 57.2999C0.126221 57.99 0.686221 58.5513 1.37622 58.5513C2.06497 58.5513 2.62622 57.99 2.62622 57.2999C2.62622 56.6113 2.06497 56.0513 1.37622 56.0513Z" fill="#0098CE"/>
<path d="M1.37622 26.0513C0.686221 26.0513 0.126221 26.6111 0.126221 27.3013V52.2999C0.126221 52.99 0.686221 53.5513 1.37622 53.5513C2.06497 53.5513 2.62622 52.99 2.62622 52.2999V27.3013C2.62622 26.6113 2.06497 26.0513 1.37622 26.0513Z" fill="#0098CE"/>
<path d="M8.79627 28.5549C8.10627 28.5549 7.54626 29.1162 7.54626 29.8063V39.8049C7.54626 40.4951 8.10627 41.0563 8.79627 41.0563C9.48502 41.0563 10.0463 40.4951 10.0463 39.8049V29.8063C10.0463 29.1163 9.48502 28.5549 8.79627 28.5549Z" fill="#0098CE"/>
<path d="M8.79627 48.5549C8.10627 48.5549 7.54626 49.1162 7.54626 49.8063V59.5788C7.54626 60.2676 8.10627 60.8288 8.79627 60.8288C9.48502 60.8288 10.0463 60.2676 10.0463 59.5788V49.8063C10.0463 49.1163 9.48502 48.5549 8.79627 48.5549Z" fill="#0098CE"/>
<path d="M8.79627 43.5563C8.10627 43.5563 7.54626 44.1161 7.54626 44.8049C7.54626 45.495 8.10627 46.0549 8.79627 46.0549C9.48502 46.0549 10.0463 45.495 10.0463 44.8049C10.0463 44.1163 9.48502 43.5563 8.79627 43.5563Z" fill="#0098CE"/>
<path d="M22.7519 6.04272C20.6843 6.04272 19.002 7.72722 19.002 9.79772C19.002 11.8682 20.6841 13.5527 22.7519 13.5527C24.8196 13.5527 26.5018 11.8682 26.5018 9.79772C26.5018 7.72722 24.8195 6.04272 22.7519 6.04272ZM22.7519 11.0527C22.0626 11.0527 21.502 10.4897 21.502 9.79772C21.502 9.10572 22.0626 8.54272 22.7519 8.54272C23.4411 8.54272 24.0018 9.10572 24.0018 9.79772C24.0018 10.4897 23.4411 11.0527 22.7519 11.0527Z" fill="#0098CE"/>
<path d="M43.2198 6.04272H30.439C29.7487 6.04272 29.189 6.60248 29.189 7.29273C29.189 7.98298 29.7487 8.54273 30.439 8.54273H43.2198C43.9102 8.54273 44.4698 7.98298 44.4698 7.29273C44.4698 6.60248 43.9102 6.04272 43.2198 6.04272Z" fill="#0098CE"/>
<path d="M30.72 11.0525C30.03 11.0525 29.47 11.6137 29.47 12.3025C29.47 12.9912 30.03 13.5525 30.72 13.5525C31.4087 13.5525 31.97 12.9912 31.97 12.3025C31.97 11.6137 31.4087 11.0525 30.72 11.0525Z" fill="#0098CE"/>
<path d="M43.22 11.0525H35.72C35.03 11.0525 34.47 11.6137 34.47 12.3025C34.47 12.9912 35.03 13.5525 35.72 13.5525H43.22C43.9087 13.5525 44.47 12.9912 44.47 12.3025C44.47 11.6137 43.9087 11.0525 43.22 11.0525Z" fill="#0098CE"/>
<path d="M62.75 18.3479H50.3973V1.25C50.3973 0.55975 49.8376 0 49.1473 0H14.8556C14.1652 0 13.6056 0.55975 13.6056 1.25V2.85775C11.4109 3.34137 9.678 5.06962 9.184 7.26388L6.22262 8.96087C5.562 8.37912 4.69663 8.02525 3.74988 8.02525C1.68225 8.02525 0 9.70975 0 11.7802C0 13.8506 1.68225 15.5351 3.74988 15.5351C5.8175 15.5351 7.49975 13.8506 7.49975 11.7802C7.49975 11.5626 7.48012 11.3498 7.4445 11.1423L9.254 10.1054C9.82687 12.1663 11.5046 13.7697 13.6056 14.2327V18.348H1.25287C0.5625 18.348 0.002875 18.9077 0.002875 19.598C0.002875 20.2882 0.5625 20.848 1.25287 20.848H15.8534V62.75C15.8534 63.4403 16.413 64 17.1034 64C17.7937 64 18.3534 63.4403 18.3534 62.75V20.8479H20.9587V50.2094C20.9587 50.8996 21.5184 51.4594 22.2087 51.4594H24.0534L30.9184 63.374C31.1415 63.7614 31.5545 64 32.0015 64C32.4485 64 32.8614 63.7614 33.0846 63.374L39.9496 51.4594H41.7943C42.4846 51.4594 43.0443 50.8996 43.0443 50.2094V50.1603V20.8479H45.6496V62.75C45.6496 63.4403 46.2092 64 46.8996 64C47.59 64 48.1496 63.4403 48.1496 62.75V20.8479H62.75C63.4404 20.8479 64 20.2881 64 19.5979C64 18.9076 63.4404 18.3479 62.75 18.3479ZM3.74988 13.0351C3.06063 13.0351 2.5 12.4721 2.5 11.7802C2.5 11.0882 3.06063 10.5253 3.74988 10.5253C4.43913 10.5253 4.99975 11.0882 4.99975 11.7802C4.99975 12.4721 4.43913 13.0351 3.74988 13.0351ZM13.6055 11.6243C12.3953 11.1285 11.5404 9.93513 11.5404 8.54525C11.5404 7.15538 12.3953 5.96187 13.6055 5.46613V11.6243ZM23.4587 48.9593V42.8573L36.3394 48.9593H23.4587ZM32.0014 60.2463L26.9386 51.4594H37.0643L32.0014 60.2463ZM40.5441 48.185L23.4587 40.091V31.8355L40.5441 39.9296V48.185ZM40.5441 37.1632L23.4587 29.0691V21.5653L40.5441 29.6593V37.1632ZM40.5441 26.8929L27.784 20.848H40.5441V26.8929ZM47.8973 18.3479H16.1056V2.5H47.8973V18.3479Z" fill="#0098CE"/>
</svg>
