<svg width="18" height="19" viewBox="0 0 18 19" fill="none" xmlns="http://www.w3.org/2000/svg">
<path d="M17.9426 5.28541C17.9767 4.5899 17.8648 3.89496 17.6141 3.2453C17.3635 2.59564 16.9795 2.00565 16.4871 1.51332C15.9946 1.02098 15.4046 0.637168 14.7548 0.386636C14.1051 0.136104 13.4101 0.0243774 12.7146 0.0586374C12.027 0.0203918 10.789 0.000856883 9.00064 2.54563e-05C7.21224 -0.000805971 5.97341 0.0187289 5.28416 0.0586374C4.58861 0.0237623 3.89348 0.135108 3.24362 0.385456C2.59375 0.635804 2.00358 1.0196 1.5112 1.5121C1.01881 2.0046 0.635145 2.59488 0.384952 3.24481C0.134759 3.89473 0.0235963 4.58988 0.0586374 5.28541C0.0187289 5.97217 -0.000805971 7.21059 2.54564e-05 9.00065C0.000856883 10.7907 0.0203918 12.0287 0.0586374 12.7146C0.0243914 13.41 0.136093 14.1049 0.38655 14.7545C0.637008 15.4041 1.02068 15.9942 1.51288 16.4866C2.00508 16.979 2.5949 17.363 3.24442 17.6138C3.89393 17.8645 4.58874 17.9765 5.28416 17.9426C5.97258 17.9817 7.21141 18.0013 9.00064 18.0013C10.7899 18.0013 12.0279 17.9817 12.7146 17.9426C13.4102 17.9769 14.1053 17.8652 14.7551 17.6145C15.4049 17.3639 15.9951 16.98 16.4876 16.4876C16.98 15.9951 17.3639 15.405 17.6145 14.7552C17.8651 14.1053 17.9769 13.4102 17.9426 12.7146C17.9809 12.0287 18 10.7907 18 9.00065C18 7.21059 17.9809 5.97217 17.9426 5.28541ZM12.2706 12.2694C11.5135 13.0326 10.5151 13.5093 9.44561 13.6184C8.37615 13.7275 7.30198 13.4621 6.40638 12.8676C5.51077 12.273 4.84923 11.3861 4.53463 10.3581C4.22003 9.33019 4.27185 8.22493 4.68127 7.23095C5.0907 6.23697 5.83234 5.41586 6.77966 4.90771C7.72698 4.39956 8.82126 4.23583 9.87581 4.44452C10.9304 4.65321 11.8798 5.22139 12.5622 6.05205C13.2446 6.88271 13.6176 7.92439 13.6175 8.99939C13.6283 9.60773 13.5143 10.2118 13.2826 10.7744C13.051 11.337 12.7066 11.8462 12.2706 12.2707V12.2694ZM14.5666 4.95616C14.3905 5.13119 14.1593 5.23979 13.9121 5.26349C13.665 5.28719 13.4173 5.22454 13.2111 5.08617C13.005 4.9478 12.8532 4.74228 12.7815 4.50458C12.7099 4.26688 12.7228 4.01169 12.8181 3.78244C12.9134 3.55319 13.0852 3.36405 13.3042 3.2472C13.5233 3.13036 13.7761 3.09301 14.0195 3.14155C14.263 3.19009 14.4822 3.32152 14.6397 3.51343C14.7972 3.70535 14.8833 3.9459 14.8834 4.19417C14.8855 4.33628 14.8585 4.47733 14.8041 4.6086C14.7496 4.73987 14.6688 4.85859 14.5666 4.95742V4.95616Z" fill="white"/>
<path d="M9.00062 5.99974C8.30668 5.99939 7.63408 6.2397 7.09745 6.67967C6.56082 7.11965 6.19335 7.73206 6.05766 8.41261C5.92197 9.09315 6.02645 9.7997 6.35331 10.4118C6.68016 11.024 7.20916 11.5039 7.85017 11.7697C8.49117 12.0355 9.20451 12.0709 9.86865 11.8697C10.5328 11.6685 11.1066 11.2433 11.4924 10.6664C11.8781 10.0896 12.0519 9.39682 11.9842 8.7062C11.9164 8.01558 11.6113 7.36985 11.1208 6.87899C10.8462 6.59533 10.5164 6.37094 10.1518 6.21972C9.78711 6.0685 9.39533 5.99363 9.00062 5.99974Z" fill="white"/>
</svg>
