<svg width="284" height="40" viewBox="0 0 284 40" fill="none" xmlns="http://www.w3.org/2000/svg">
<g clip-path="url(#clip0)">
<path d="M165.178 17.5635C165.178 17.665 165.127 17.7158 165.025 17.7158C164.924 17.7666 164.772 17.7666 164.467 17.8173C164.213 17.8681 163.909 17.8681 163.655 17.8681C162.944 17.8681 162.386 17.665 161.98 17.2589C161.574 16.8529 161.371 16.2437 161.371 15.4315V14.2133C161.371 13.5534 161.472 13.0965 161.726 12.6904C161.98 12.3351 162.233 12.0813 162.589 11.929C162.944 11.7767 163.299 11.726 163.655 11.726C163.909 11.726 164.162 11.726 164.467 11.7767C164.721 11.8275 164.924 11.8275 165.025 11.8782C165.127 11.929 165.178 11.9798 165.178 12.0305V12.5889C165.178 12.6904 165.127 12.7412 165.025 12.7412C164.518 12.6904 164.112 12.6904 163.756 12.6904C162.995 12.6904 162.589 13.198 162.589 14.2133V15.4315C162.589 16.4468 162.995 16.9544 163.756 16.9544C163.959 16.9544 164.162 16.9544 164.416 16.9544L165.076 16.9036C165.178 16.9036 165.228 16.9544 165.228 17.0559V17.5635H165.178Z" fill="white"/>
<path d="M170 15.736C170 15.8883 169.949 15.9391 169.848 15.9391H167.208C167.208 16.2437 167.259 16.4467 167.411 16.6498C167.563 16.8528 167.817 16.9543 168.173 16.9543C168.426 16.9543 168.68 16.9543 168.934 16.9036L169.645 16.8528C169.746 16.8528 169.797 16.9036 169.797 16.9543V17.5127C169.797 17.6142 169.746 17.665 169.695 17.7157C169.645 17.7157 169.492 17.7665 169.188 17.8173C168.883 17.868 168.528 17.868 168.02 17.868C167.462 17.868 167.005 17.7157 166.599 17.3604C166.244 17.0051 166.041 16.4975 166.041 15.8376V15.2284C166.041 14.5685 166.193 14.0609 166.548 13.7056C166.904 13.3503 167.36 13.1472 167.97 13.1472C168.579 13.1472 169.036 13.3503 169.391 13.7056C169.746 14.0609 169.898 14.5685 169.898 15.2284V15.736H170ZM168.934 15.1777C168.934 14.8223 168.832 14.5685 168.68 14.4163C168.528 14.2132 168.325 14.1624 168.071 14.1624C167.817 14.1624 167.614 14.264 167.462 14.4163C167.31 14.6193 167.208 14.8223 167.208 15.1269V15.1777H168.934Z" fill="white"/>
<path d="M174.924 15.8376C174.924 16.4975 174.772 17.0051 174.416 17.3604C174.112 17.7158 173.604 17.9188 172.944 17.9188C172.69 17.9188 172.437 17.9188 172.183 17.868V19.2894C172.183 19.3401 172.183 19.3909 172.132 19.3909C172.081 19.4417 172.081 19.4417 172.03 19.4417H171.269C171.218 19.4417 171.168 19.4417 171.168 19.3909C171.117 19.3401 171.117 19.3401 171.117 19.2894V13.6041C171.117 13.5026 171.168 13.4518 171.218 13.4518C171.269 13.401 171.472 13.3503 171.878 13.2995C172.234 13.2488 172.64 13.198 172.995 13.198C173.604 13.198 174.112 13.3503 174.416 13.7056C174.772 14.0609 174.924 14.5686 174.924 15.2285V15.8376ZM173.858 15.8376V15.2285C173.858 14.8224 173.807 14.5178 173.655 14.3147C173.503 14.1117 173.299 14.0609 172.995 14.0609C172.69 14.0609 172.437 14.0609 172.233 14.1117V16.9543C172.538 17.0051 172.792 17.0051 172.995 17.0051C173.299 17.0051 173.503 16.9036 173.655 16.7513C173.807 16.5483 173.858 16.2944 173.858 15.8376Z" fill="white"/>
<path d="M178.223 14.1117V17.665C178.223 17.7158 178.223 17.7665 178.173 17.7665C178.122 17.8173 178.122 17.8173 178.071 17.8173H177.31C177.259 17.8173 177.208 17.8173 177.208 17.7665C177.157 17.7158 177.157 17.7158 177.157 17.665V14.1117H175.888C175.838 14.1117 175.787 14.1117 175.787 14.061C175.736 14.0102 175.736 14.0102 175.736 13.9594V13.4011C175.736 13.3503 175.736 13.2995 175.787 13.2995C175.838 13.2995 175.838 13.2488 175.888 13.2488H179.492C179.543 13.2488 179.594 13.2488 179.594 13.2995C179.645 13.3503 179.645 13.3503 179.645 13.4011V13.9594C179.645 14.0102 179.645 14.061 179.594 14.061C179.543 14.1117 179.543 14.1117 179.492 14.1117H178.223Z" fill="white"/>
<path d="M184.365 17.665C184.365 17.7158 184.365 17.7665 184.315 17.7665C184.264 17.8173 184.264 17.8173 184.213 17.8173H183.452C183.401 17.8173 183.35 17.8173 183.35 17.7665C183.35 17.7158 183.299 17.7158 183.299 17.665V17.462C182.893 17.7158 182.487 17.8681 182.03 17.8681C181.574 17.8681 181.218 17.7158 180.964 17.462C180.711 17.2082 180.609 16.7006 180.609 16.0407V13.4011C180.609 13.3503 180.609 13.2995 180.66 13.2995C180.711 13.2488 180.711 13.2488 180.761 13.2488H181.523C181.574 13.2488 181.624 13.2488 181.624 13.2995C181.675 13.3503 181.675 13.3503 181.675 13.4011V16.0407C181.675 16.396 181.726 16.6498 181.827 16.7513C181.929 16.9036 182.081 16.9544 182.386 16.9544C182.589 16.9544 182.893 16.8528 183.299 16.6498V13.4011C183.299 13.3503 183.299 13.2995 183.35 13.2995C183.401 13.2488 183.401 13.2488 183.452 13.2488H184.213C184.264 13.2488 184.315 13.2488 184.315 13.2995C184.365 13.3503 184.365 13.3503 184.365 13.4011V17.665Z" fill="white"/>
<path d="M191.675 15.8376C191.675 16.4975 191.523 17.0051 191.167 17.3605C190.863 17.7158 190.355 17.8681 189.746 17.8681C189.594 17.8681 189.391 17.8681 189.086 17.8173V19.2894C189.086 19.3401 189.086 19.3909 189.036 19.3909C188.985 19.4417 188.985 19.4417 188.934 19.4417H188.173C188.122 19.4417 188.071 19.4417 188.071 19.3909C188.02 19.3401 188.02 19.3401 188.02 19.2894V17.8681C187.766 17.9188 187.513 17.9188 187.36 17.9188C186.751 17.9188 186.244 17.7665 185.939 17.4112C185.635 17.0559 185.431 16.5483 185.431 15.8884V15.2285C185.431 14.5686 185.584 14.061 185.888 13.7056C186.193 13.3503 186.7 13.198 187.31 13.198C187.513 13.198 187.766 13.198 187.97 13.2488V11.8275C187.97 11.7767 187.97 11.7259 188.02 11.7259C188.071 11.6752 188.071 11.6752 188.122 11.6752H188.883C188.934 11.6752 188.985 11.6752 188.985 11.7259C189.036 11.7767 189.036 11.7767 189.036 11.8275V13.2488C189.239 13.198 189.442 13.198 189.695 13.198C190.305 13.198 190.812 13.3503 191.117 13.7056C191.421 14.061 191.624 14.5686 191.624 15.2285V15.8376H191.675ZM188.071 16.9544V14.1117C187.919 14.061 187.665 14.061 187.411 14.061C187.107 14.061 186.904 14.1625 186.802 14.3148C186.65 14.467 186.599 14.7716 186.599 15.2285V15.8376C186.599 16.2437 186.65 16.5483 186.802 16.7513C186.954 16.9036 187.157 17.0051 187.411 17.0051C187.563 17.0051 187.817 17.0051 188.071 16.9544ZM190.609 15.8376V15.2285C190.609 14.8224 190.558 14.5178 190.406 14.3148C190.254 14.1625 190.051 14.061 189.797 14.061C189.543 14.061 189.34 14.061 189.137 14.1117V16.9544C189.391 17.0051 189.594 17.0051 189.797 17.0051C190.101 17.0051 190.305 16.9036 190.406 16.7513C190.558 16.599 190.609 16.2945 190.609 15.8376Z" fill="white"/>
<path d="M196.548 17.665C196.548 17.7158 196.548 17.7665 196.497 17.7665C196.447 17.7665 196.447 17.8173 196.396 17.8173H195.635C195.584 17.8173 195.533 17.8173 195.533 17.7665C195.533 17.7158 195.482 17.7158 195.482 17.665V17.462C195.076 17.7158 194.67 17.8681 194.213 17.8681C193.756 17.8681 193.401 17.7158 193.147 17.462C192.893 17.2082 192.792 16.7006 192.792 16.0407V13.4011C192.792 13.3503 192.792 13.2995 192.843 13.2995C192.893 13.2488 192.893 13.2488 192.944 13.2488H193.706C193.756 13.2488 193.807 13.2488 193.807 13.2995C193.858 13.3503 193.858 13.3503 193.858 13.4011V16.0407C193.858 16.396 193.909 16.6498 194.01 16.7513C194.112 16.9036 194.264 16.9544 194.569 16.9544C194.772 16.9544 195.076 16.8528 195.482 16.6498V13.4011C195.482 13.3503 195.482 13.2995 195.533 13.2995C195.584 13.2488 195.584 13.2488 195.635 13.2488H196.396C196.447 13.2488 196.497 13.2488 196.497 13.2995C196.548 13.3503 196.548 13.3503 196.548 13.4011V17.665Z" fill="white"/>
<path d="M199.848 15.4315L200.914 16.9036C201.269 17.4112 201.472 17.665 201.472 17.7158C201.472 17.7158 201.472 17.7158 201.472 17.7665C201.472 17.8173 201.421 17.8681 201.371 17.8681H200.355C200.254 17.8681 200.152 17.8173 200.102 17.665L198.883 15.8376V17.665C198.883 17.7158 198.883 17.7665 198.832 17.7665C198.782 17.8173 198.782 17.8173 198.731 17.8173H197.97C197.919 17.8173 197.868 17.8173 197.868 17.7665C197.817 17.7158 197.817 17.7158 197.817 17.665V13.4011C197.817 13.3503 197.817 13.2995 197.868 13.2995C197.919 13.2995 197.919 13.2488 197.97 13.2488H198.731C198.782 13.2488 198.832 13.2488 198.832 13.2995C198.883 13.3503 198.883 13.3503 198.883 13.4011V15.1777L199.746 14.0102C200.102 13.5533 200.254 13.2995 200.305 13.2995L200.355 13.2488C200.406 13.2488 200.406 13.2488 200.457 13.2488H201.371C201.472 13.2488 201.472 13.2995 201.472 13.3503C201.472 13.4011 201.472 13.4011 201.472 13.4011L199.848 15.4315Z" fill="white"/>
<path d="M205.888 17.665C205.888 17.7157 205.888 17.7665 205.838 17.7665C205.787 17.7665 205.787 17.8172 205.736 17.8172H205.025C204.975 17.8172 204.924 17.8172 204.924 17.7665C204.924 17.7157 204.873 17.7157 204.873 17.665V17.5127C204.467 17.7665 204.112 17.868 203.706 17.868C203.249 17.868 202.893 17.7665 202.64 17.5127C202.386 17.3096 202.284 16.9543 202.284 16.4975V16.4467C202.284 15.9898 202.437 15.6345 202.741 15.3807C203.046 15.1269 203.553 15.0254 204.264 15.0254H204.772V14.67C204.772 14.4162 204.721 14.2639 204.619 14.1624C204.518 14.0609 204.315 14.0101 204.061 14.0101C203.807 14.0101 203.604 14.0101 203.35 14.0101L202.741 14.0609H202.69C202.589 14.0609 202.538 14.0101 202.538 13.9086V13.401C202.538 13.3502 202.538 13.2995 202.589 13.2487C202.64 13.198 202.792 13.198 203.096 13.1472C203.401 13.0964 203.706 13.0964 204.01 13.0964C205.178 13.0964 205.787 13.6041 205.787 14.67V17.665H205.888ZM204.822 16.802V15.7868H204.315C204.01 15.7868 203.756 15.8376 203.604 15.9391C203.452 16.0406 203.401 16.1929 203.401 16.4975V16.5482C203.401 16.7513 203.452 16.8528 203.503 16.9543C203.553 17.0558 203.756 17.0558 203.959 17.0558C204.264 17.0558 204.518 16.9543 204.822 16.802Z" fill="white"/>
<path d="M211.523 17.0051C211.574 17.0051 211.624 17.0051 211.624 17.0559C211.624 17.1066 211.675 17.1066 211.675 17.1574V18.7818C211.675 18.8325 211.675 18.8833 211.624 18.8833C211.574 18.934 211.574 18.934 211.523 18.934H210.761C210.711 18.934 210.66 18.934 210.66 18.8833C210.609 18.8325 210.609 18.8325 210.609 18.7818V17.8173H208.477C207.919 17.8173 207.563 17.7158 207.411 17.5127C207.259 17.3097 207.157 17.0051 207.157 16.6498V13.401C207.157 13.3503 207.157 13.2995 207.208 13.2995C207.259 13.2488 207.259 13.2488 207.31 13.2488H208.071C208.122 13.2488 208.173 13.2488 208.173 13.2995C208.223 13.3503 208.223 13.3503 208.223 13.401V16.6498C208.223 16.7513 208.223 16.8528 208.274 16.8528C208.325 16.9036 208.376 16.9036 208.477 16.9036H209.543C209.645 16.9036 209.695 16.9036 209.746 16.8528C209.797 16.8021 209.797 16.7513 209.797 16.599V13.3503C209.797 13.2995 209.797 13.2488 209.848 13.2488C209.898 13.198 209.898 13.198 209.949 13.198H210.711C210.761 13.198 210.812 13.198 210.812 13.2488C210.863 13.2995 210.863 13.2995 210.863 13.3503V16.599C210.863 16.7005 210.863 16.8528 210.812 16.9543H211.523V17.0051Z" fill="white"/>
<path d="M216.294 17.665C216.294 17.7158 216.294 17.7665 216.244 17.7665C216.193 17.7665 216.193 17.8173 216.142 17.8173H215.381C215.33 17.8173 215.279 17.8173 215.279 17.7665C215.279 17.7158 215.228 17.7158 215.228 17.665V17.462C214.822 17.7158 214.416 17.8681 213.959 17.8681C213.503 17.8681 213.147 17.7158 212.893 17.462C212.64 17.2082 212.538 16.7006 212.538 16.0407V13.4011C212.538 13.3503 212.538 13.2995 212.589 13.2995C212.64 13.2488 212.64 13.2488 212.69 13.2488H213.452C213.503 13.2488 213.553 13.2488 213.553 13.2995C213.604 13.3503 213.604 13.3503 213.604 13.4011V16.0407C213.604 16.396 213.655 16.6498 213.756 16.7513C213.858 16.9036 214.01 16.9544 214.315 16.9544C214.518 16.9544 214.822 16.8528 215.228 16.6498V13.4011C215.228 13.3503 215.228 13.2995 215.279 13.2995C215.33 13.2488 215.33 13.2488 215.381 13.2488H216.142C216.193 13.2488 216.244 13.2488 216.244 13.2995C216.294 13.3503 216.294 13.3503 216.294 13.4011V17.665Z" fill="white"/>
<path d="M218.477 15.9391C217.817 15.7361 217.462 15.2792 217.462 14.6701V14.6193C217.462 13.6549 218.173 13.198 219.645 13.198C219.949 13.198 220.305 13.198 220.609 13.2488C220.964 13.2995 221.117 13.2995 221.168 13.3503C221.218 13.401 221.218 13.4518 221.218 13.5026V17.7665C221.218 17.8173 221.218 17.8173 221.168 17.868C221.117 17.868 221.117 17.9188 221.066 17.9188H220.305C220.203 17.9188 220.152 17.868 220.152 17.8173V16.1929C220 16.1929 219.797 16.1929 219.594 16.1929H219.442L218.68 17.3097C218.426 17.665 218.325 17.8173 218.274 17.868C218.274 17.9188 218.223 17.9188 218.173 17.9188H217.259C217.208 17.9188 217.157 17.9188 217.157 17.868V17.8173L218.477 15.9391ZM218.477 14.6701C218.477 14.9239 218.579 15.0762 218.731 15.1777C218.883 15.2792 219.188 15.33 219.645 15.33H220.203V14.0609C220 14.0609 219.848 14.0102 219.645 14.0102C219.239 14.0102 218.934 14.0609 218.782 14.1625C218.629 14.264 218.528 14.4163 218.528 14.6193V14.6701H218.477Z" fill="white"/>
<path d="M227.208 14.1625H226.142C226.041 14.1625 225.939 14.1625 225.939 14.2133C225.888 14.264 225.888 14.3148 225.888 14.4671V17.7158C225.888 17.7666 225.888 17.8173 225.838 17.8173C225.787 17.8681 225.787 17.8681 225.736 17.8681H224.975C224.924 17.8681 224.873 17.8681 224.873 17.8173C224.822 17.7666 224.822 17.7666 224.822 17.7158V14.4671C224.822 14.061 224.924 13.8072 225.076 13.6041C225.228 13.4011 225.584 13.2996 226.142 13.2996H227.208C227.766 13.2996 228.122 13.4011 228.274 13.6041C228.426 13.8072 228.528 14.1117 228.528 14.4671V17.7158C228.528 17.7666 228.528 17.8173 228.477 17.8173C228.426 17.8681 228.426 17.8681 228.376 17.8681H227.614C227.563 17.8681 227.513 17.8681 227.513 17.8173C227.462 17.7666 227.462 17.7666 227.462 17.7158V14.4671C227.462 14.3656 227.462 14.264 227.411 14.2133C227.411 14.1625 227.36 14.1625 227.208 14.1625Z" fill="white"/>
<path d="M233.553 15.8884C233.553 16.4975 233.401 17.0051 233.046 17.3604C232.69 17.7158 232.233 17.9188 231.624 17.9188C231.015 17.9188 230.558 17.7158 230.203 17.3604C229.848 17.0051 229.695 16.4975 229.695 15.8884V15.2285C229.695 14.6193 229.848 14.1117 230.203 13.7564C230.558 13.401 231.015 13.198 231.624 13.198C232.233 13.198 232.69 13.401 233.046 13.7564C233.401 14.1117 233.553 14.6193 233.553 15.2285V15.8884ZM232.487 15.8884V15.2285C232.487 14.8731 232.437 14.6193 232.284 14.4163C232.132 14.2132 231.929 14.1117 231.624 14.1117C231.371 14.1117 231.117 14.2132 230.964 14.4163C230.812 14.6193 230.761 14.8731 230.761 15.2285V15.8884C230.761 16.2437 230.812 16.4975 230.964 16.7005C231.117 16.9036 231.32 17.0051 231.624 17.0051C231.878 17.0051 232.132 16.9036 232.284 16.7005C232.437 16.4975 232.487 16.2437 232.487 15.8884Z" fill="white"/>
<path d="M240.711 15.8376C240.711 16.4975 240.558 17.0051 240.203 17.3604C239.898 17.7158 239.391 17.9188 238.731 17.9188C238.477 17.9188 238.223 17.9188 237.97 17.868V19.2894C237.97 19.3401 237.97 19.3909 237.919 19.3909C237.868 19.4417 237.868 19.4417 237.817 19.4417H237.056C237.005 19.4417 236.954 19.4417 236.954 19.3909C236.904 19.3401 236.904 19.3401 236.904 19.2894V13.6041C236.904 13.5026 236.954 13.4518 237.005 13.4518C237.056 13.401 237.259 13.3503 237.665 13.2995C238.02 13.2488 238.426 13.198 238.782 13.198C239.391 13.198 239.898 13.3503 240.203 13.7056C240.558 14.0609 240.711 14.5686 240.711 15.2285V15.8376ZM239.645 15.8376V15.2285C239.645 14.8224 239.594 14.5178 239.442 14.3147C239.289 14.1117 239.086 14.0609 238.782 14.0609C238.477 14.0609 238.223 14.0609 238.02 14.1117V16.9543C238.325 17.0051 238.579 17.0051 238.782 17.0051C239.086 17.0051 239.289 16.9036 239.442 16.7513C239.543 16.5483 239.645 16.2944 239.645 15.8376Z" fill="white"/>
<path d="M245.533 15.736C245.533 15.8883 245.482 15.9391 245.381 15.9391H242.741C242.741 16.2437 242.792 16.4467 242.944 16.6498C243.096 16.8528 243.35 16.9543 243.706 16.9543C243.959 16.9543 244.213 16.9543 244.467 16.9036L245.178 16.8528C245.279 16.8528 245.33 16.9036 245.33 16.9543V17.5127C245.33 17.6142 245.279 17.665 245.228 17.7157C245.178 17.7157 245.025 17.7665 244.721 17.8173C244.416 17.868 244.061 17.868 243.553 17.868C242.995 17.868 242.538 17.7157 242.132 17.3604C241.726 17.0051 241.574 16.4975 241.574 15.8376V15.2284C241.574 14.5685 241.726 14.0609 242.081 13.7056C242.437 13.3503 242.893 13.1472 243.503 13.1472C244.112 13.1472 244.568 13.3503 244.924 13.7056C245.279 14.0609 245.431 14.5685 245.431 15.2284V15.736H245.533ZM244.467 15.1777C244.467 14.8223 244.365 14.5685 244.213 14.4163C244.061 14.2132 243.858 14.1624 243.604 14.1624C243.35 14.1624 243.147 14.264 242.995 14.4163C242.843 14.6193 242.741 14.8223 242.741 15.1269V15.1777H244.467Z" fill="white"/>
<path d="M248.122 14.2133C247.868 14.2133 247.716 14.3655 247.716 14.6701V17.7158C247.716 17.7666 247.716 17.8173 247.665 17.8173C247.614 17.8173 247.614 17.8681 247.563 17.8681H246.802C246.751 17.8681 246.7 17.8681 246.7 17.8173C246.7 17.7666 246.65 17.7666 246.65 17.7158V14.6701C246.65 14.1625 246.751 13.8072 247.005 13.6041C247.259 13.4011 247.614 13.2996 248.122 13.2996H249.086C249.137 13.2996 249.188 13.2996 249.188 13.3503C249.188 13.4011 249.239 13.4011 249.239 13.4518V14.061C249.239 14.1117 249.239 14.1625 249.188 14.1625C249.137 14.1625 249.137 14.2133 249.086 14.2133H248.122Z" fill="white"/>
<path d="M252.538 17.7158L251.726 14.3147C251.675 14.2132 251.624 14.1625 251.523 14.1625C251.421 14.1625 251.371 14.2132 251.32 14.3147L250.508 17.7158C250.508 17.8173 250.457 17.868 250.355 17.868H249.543C249.442 17.868 249.391 17.8173 249.391 17.7158C249.391 17.7158 249.391 17.7158 249.391 17.665L250.355 14.0102C250.508 13.4518 250.863 13.198 251.472 13.198C252.081 13.198 252.437 13.4518 252.589 14.0102L253.553 17.665C253.553 17.7665 253.503 17.8173 253.401 17.8173H252.589C252.589 17.8173 252.538 17.7665 252.538 17.7158Z" fill="white"/>
<path d="M258.071 17.665C258.071 17.7157 258.071 17.7665 258.02 17.7665C257.97 17.8172 257.97 17.8172 257.919 17.8172H257.208C257.157 17.8172 257.107 17.8172 257.107 17.7665C257.056 17.7157 257.056 17.7157 257.056 17.665V17.5127C256.65 17.7665 256.294 17.868 255.888 17.868C255.431 17.868 255.076 17.7665 254.822 17.5127C254.569 17.3096 254.467 16.9543 254.467 16.4975V16.4467C254.467 15.9898 254.619 15.6345 254.924 15.3807C255.228 15.1269 255.736 15.0254 256.447 15.0254H256.954V14.67C256.954 14.4162 256.904 14.2639 256.802 14.1624C256.7 14.0609 256.497 14.0101 256.244 14.0101C255.99 14.0101 255.787 14.0101 255.533 14.0101L254.924 14.0609H254.873C254.772 14.0609 254.721 14.0101 254.721 13.9086V13.401C254.721 13.3502 254.721 13.2995 254.772 13.2487C254.822 13.198 254.975 13.198 255.279 13.1472C255.584 13.0964 255.888 13.0964 256.193 13.0964C257.36 13.0964 257.97 13.6041 257.97 14.67V17.665H258.071ZM256.954 16.802V15.7868H256.447C256.142 15.7868 255.888 15.8376 255.736 15.9391C255.584 16.0406 255.533 16.1929 255.533 16.4975V16.5482C255.533 16.7513 255.584 16.8528 255.634 16.9543C255.736 17.0051 255.888 17.0558 256.091 17.0558C256.396 17.0558 256.7 16.9543 256.954 16.802Z" fill="white"/>
<path d="M264.01 17.7665C264.01 17.8172 263.959 17.868 263.858 17.868H263.096C263.046 17.868 263.046 17.868 262.995 17.8172C262.995 17.7665 262.944 17.7665 262.944 17.7157V14.8731C262.944 14.8223 262.944 14.8223 262.944 14.8223C262.944 14.8223 262.944 14.8223 262.893 14.8731L262.487 15.6345C262.335 15.9391 262.233 16.0406 262.233 16.0914C262.233 16.0914 262.183 16.1421 262.132 16.1421C262.081 16.1421 262.03 16.1421 262.03 16.1421H261.269C261.167 16.1421 261.066 16.0914 261.015 16.0406L260.355 14.8731C260.355 14.8731 260.355 14.8731 260.355 14.9238V17.7665C260.355 17.8172 260.355 17.8172 260.305 17.868C260.305 17.9188 260.254 17.9188 260.203 17.9188H259.442C259.34 17.9188 259.289 17.868 259.289 17.8172V13.604C259.289 13.5533 259.34 13.5025 259.391 13.4518C259.442 13.401 259.492 13.401 259.594 13.401H260.203C260.254 13.401 260.305 13.401 260.305 13.401C260.355 13.401 260.355 13.4518 260.406 13.4518C260.457 13.4518 260.508 13.5533 260.609 13.7563L261.523 15.4315C261.574 15.4822 261.574 15.533 261.624 15.533C261.675 15.533 261.675 15.533 261.675 15.4822L262.741 13.5533C262.792 13.4518 262.893 13.401 262.995 13.401H263.604C263.706 13.401 263.756 13.401 263.807 13.4518C263.858 13.5025 263.909 13.5533 263.909 13.604V17.7665H264.01Z" fill="white"/>
<path d="M269.086 15.736C269.086 15.8883 269.036 15.9391 268.934 15.9391H266.294C266.294 16.2437 266.345 16.4467 266.497 16.6498C266.65 16.8528 266.904 16.9543 267.259 16.9543C267.513 16.9543 267.766 16.9543 268.02 16.9036L268.731 16.8528C268.832 16.8528 268.883 16.9036 268.883 16.9543V17.5127C268.883 17.6142 268.832 17.665 268.782 17.7157C268.731 17.7157 268.579 17.7665 268.274 17.8173C267.97 17.868 267.614 17.868 267.107 17.868C266.548 17.868 266.091 17.7157 265.685 17.3604C265.279 17.0051 265.127 16.4975 265.127 15.8376V15.2284C265.127 14.5685 265.279 14.0609 265.635 13.7056C265.99 13.3503 266.447 13.1472 267.056 13.1472C267.665 13.1472 268.122 13.3503 268.477 13.7056C268.832 14.0609 268.985 14.5685 268.985 15.2284V15.736H269.086ZM268.02 15.1777C268.02 14.8223 267.919 14.5685 267.766 14.4163C267.614 14.2132 267.411 14.1624 267.157 14.1624C266.904 14.1624 266.7 14.264 266.548 14.4163C266.396 14.6193 266.294 14.8223 266.294 15.1269V15.1777H268.02Z" fill="white"/>
<path d="M271.269 17.665C271.269 17.7158 271.269 17.7665 271.218 17.7665C271.167 17.8173 271.167 17.8173 271.117 17.8173H270.355C270.305 17.8173 270.254 17.8173 270.254 17.7665C270.203 17.7158 270.203 17.7158 270.203 17.665V13.4011C270.203 13.3503 270.203 13.2995 270.254 13.2995C270.305 13.2488 270.305 13.2488 270.355 13.2488H271.117C271.167 13.2488 271.218 13.2488 271.218 13.2995C271.269 13.3503 271.269 13.3503 271.269 13.4011V15.0254H272.893V13.4011C272.893 13.3503 272.893 13.2995 272.944 13.2995C272.995 13.2488 272.995 13.2488 273.046 13.2488H273.807C273.858 13.2488 273.909 13.2488 273.909 13.2995C273.959 13.3503 273.959 13.3503 273.959 13.4011V17.665C273.959 17.7158 273.959 17.7665 273.909 17.7665C273.858 17.8173 273.858 17.8173 273.807 17.8173H273.046C272.995 17.8173 272.944 17.8173 272.944 17.7665C272.893 17.7158 272.893 17.7158 272.893 17.665V15.8884H271.269V17.665Z" fill="white"/>
<path d="M277.411 14.1117V17.665C277.411 17.7158 277.411 17.7665 277.36 17.7665C277.31 17.8173 277.31 17.8173 277.259 17.8173H276.497C276.447 17.8173 276.396 17.8173 276.396 17.7665C276.345 17.7158 276.345 17.7158 276.345 17.665V14.1117H275.076C275.025 14.1117 274.975 14.1117 274.975 14.061C274.924 14.0102 274.924 14.0102 274.924 13.9594V13.4011C274.924 13.3503 274.924 13.2995 274.975 13.2995C275.025 13.2488 275.025 13.2488 275.076 13.2488H278.68C278.731 13.2488 278.782 13.2488 278.782 13.2995C278.832 13.3503 278.832 13.3503 278.832 13.4011V13.9594C278.832 14.0102 278.832 14.061 278.782 14.061C278.731 14.1117 278.731 14.1117 278.68 14.1117H277.411Z" fill="white"/>
<path d="M281.624 16.9036L282.487 13.401C282.487 13.2995 282.538 13.2488 282.64 13.2488H283.452C283.503 13.2488 283.503 13.2488 283.553 13.2995C283.604 13.3503 283.604 13.3503 283.604 13.401V13.4518L282.233 18.1726C282.081 18.731 281.878 19.0863 281.624 19.2386C281.371 19.3909 281.015 19.4417 280.558 19.4417C280.355 19.4417 280.203 19.4417 280 19.3909C279.797 19.3401 279.695 19.3401 279.594 19.2894C279.543 19.2386 279.492 19.2386 279.492 19.1878V18.6802C279.492 18.5787 279.543 18.5279 279.645 18.5279L280.558 18.5787C280.761 18.5787 280.863 18.5279 280.964 18.4772C281.066 18.4264 281.167 18.1726 281.269 17.8173H281.168C280.964 17.8173 280.812 17.7665 280.711 17.6142C280.609 17.5127 280.508 17.3097 280.457 17.1066L279.391 13.401V13.3503C279.391 13.2488 279.442 13.198 279.543 13.198H280.355C280.457 13.198 280.508 13.2488 280.508 13.3503L281.32 16.6498C281.371 16.7513 281.371 16.8528 281.421 16.8528H281.624V16.9036Z" fill="white"/>
<path d="M163.706 23.8579V27.4112C163.706 27.462 163.706 27.5128 163.655 27.5128C163.604 27.5635 163.604 27.5635 163.553 27.5635H162.792C162.741 27.5635 162.69 27.5635 162.69 27.5128C162.64 27.462 162.64 27.462 162.64 27.4112V23.8579H161.371C161.32 23.8579 161.269 23.8579 161.269 23.8072C161.218 23.7564 161.218 23.7564 161.218 23.7057V23.1473C161.218 23.0965 161.218 23.0458 161.269 23.0458C161.32 22.995 161.32 22.995 161.371 22.995H164.975C165.025 22.995 165.076 22.995 165.076 23.0458C165.127 23.0965 165.127 23.0965 165.127 23.1473V23.7057C165.127 23.7564 165.127 23.8072 165.076 23.8072C165.025 23.8579 165.025 23.8579 164.975 23.8579H163.706Z" fill="white"/>
<path d="M169.492 27.4112C169.492 27.4619 169.492 27.5127 169.442 27.5127C169.391 27.5127 169.391 27.5635 169.34 27.5635H168.629C168.579 27.5635 168.528 27.5635 168.528 27.5127C168.528 27.4619 168.477 27.4619 168.477 27.4112V27.2589C168.071 27.5127 167.716 27.6142 167.31 27.6142C166.853 27.6142 166.497 27.5127 166.244 27.2589C165.99 27.0558 165.888 26.7005 165.888 26.2437V26.1929C165.888 25.7361 166.041 25.3807 166.345 25.1269C166.65 24.8731 167.157 24.7716 167.868 24.7716H168.376V24.4163C168.376 24.1624 168.325 24.0102 168.223 23.9086C168.122 23.8071 167.919 23.7564 167.665 23.7564C167.411 23.7564 167.208 23.7564 166.954 23.7564L166.345 23.8071H166.294C166.193 23.8071 166.142 23.7564 166.142 23.6548V23.1472C166.142 23.0965 166.142 23.0457 166.193 22.9949C166.244 22.9442 166.396 22.9442 166.7 22.8934C167.005 22.8427 167.31 22.8427 167.614 22.8427C168.782 22.8427 169.391 23.3503 169.391 24.4163V27.4112H169.492ZM168.426 26.5482V25.533H167.919C167.614 25.533 167.36 25.5838 167.208 25.6853C167.056 25.7868 167.005 25.9391 167.005 26.2437V26.2944C167.005 26.4975 167.056 26.599 167.107 26.7005C167.208 26.7513 167.36 26.802 167.563 26.802C167.868 26.802 168.173 26.7005 168.426 26.5482Z" fill="white"/>
<path d="M175.431 27.5127C175.431 27.5635 175.381 27.6142 175.279 27.6142H174.518C174.467 27.6142 174.467 27.6142 174.416 27.5635C174.416 27.5127 174.365 27.5127 174.365 27.4619V24.6193C174.365 24.5685 174.365 24.5685 174.365 24.5685C174.365 24.5685 174.365 24.5685 174.315 24.6193L173.909 25.3807C173.756 25.6853 173.655 25.7868 173.655 25.8376C173.655 25.8376 173.604 25.8883 173.553 25.8883C173.503 25.8883 173.452 25.8883 173.452 25.8883H172.69C172.589 25.8883 172.487 25.8376 172.437 25.7868L171.777 24.6193C171.777 24.6193 171.777 24.6193 171.777 24.6701V27.5127C171.777 27.5635 171.777 27.5635 171.726 27.6142C171.726 27.665 171.675 27.665 171.624 27.665H170.863C170.761 27.665 170.711 27.6142 170.711 27.5635V23.3503C170.711 23.2995 170.761 23.2487 170.812 23.198C170.863 23.1472 170.914 23.1472 171.015 23.1472H171.624C171.675 23.1472 171.726 23.1472 171.726 23.1472C171.777 23.1472 171.777 23.198 171.827 23.198C171.878 23.198 171.929 23.2995 172.03 23.5025L172.944 25.1777C172.995 25.2284 172.995 25.2792 173.046 25.2792C173.096 25.2792 173.096 25.2792 173.096 25.2284L174.162 23.2995C174.213 23.198 174.315 23.1472 174.416 23.1472H175.025C175.127 23.1472 175.178 23.1472 175.228 23.198C175.279 23.2487 175.33 23.2995 175.33 23.3503V27.5127H175.431Z" fill="white"/>
<path d="M180.558 25.6346C180.558 26.2437 180.406 26.7513 180.051 27.1066C179.695 27.462 179.239 27.665 178.629 27.665C178.02 27.665 177.563 27.462 177.208 27.1066C176.853 26.7513 176.701 26.2437 176.701 25.6346V24.9747C176.701 24.3655 176.853 23.8579 177.208 23.5026C177.563 23.1473 178.02 22.9442 178.629 22.9442C179.239 22.9442 179.695 23.1473 180.051 23.5026C180.406 23.8579 180.558 24.3655 180.558 24.9747V25.6346ZM179.442 25.6346V24.9747C179.442 24.6193 179.391 24.3655 179.239 24.1625C179.086 23.9594 178.883 23.8579 178.579 23.8579C178.274 23.8579 178.071 23.9594 177.919 24.1625C177.766 24.3655 177.716 24.6193 177.716 24.9747V25.6346C177.716 25.9899 177.766 26.2437 177.919 26.4467C178.071 26.6498 178.274 26.7513 178.579 26.7513C178.832 26.7513 179.086 26.6498 179.239 26.4467C179.391 26.2437 179.442 25.9899 179.442 25.6346Z" fill="white"/>
<path d="M184.01 24.9239V23.1473C184.01 23.0965 184.01 23.0458 184.061 23.0458C184.112 22.995 184.112 22.995 184.162 22.995H184.924C184.975 22.995 185.025 22.995 185.025 23.0458C185.025 23.0965 185.076 23.0965 185.076 23.1473V24.9239L185.939 23.7564C186.294 23.2996 186.447 23.0458 186.497 23.0458L186.548 22.995C186.599 22.995 186.599 22.995 186.65 22.995H187.563C187.665 22.995 187.665 23.0458 187.665 23.0965C187.665 23.1473 187.665 23.1473 187.665 23.1473L186.041 25.1777L187.107 26.6498C187.462 27.1574 187.665 27.4112 187.665 27.462C187.665 27.462 187.665 27.462 187.665 27.5128C187.665 27.5635 187.614 27.6143 187.563 27.6143H186.548C186.447 27.6143 186.345 27.5635 186.294 27.4112L185.076 25.5838V27.4112C185.076 27.462 185.076 27.5128 185.025 27.5128C184.975 27.5635 184.975 27.5635 184.924 27.5635H184.162C184.112 27.5635 184.061 27.5635 184.061 27.5128C184.01 27.462 184.01 27.462 184.01 27.4112V25.5838L183.198 26.7513C182.893 27.2082 182.741 27.462 182.69 27.462C182.69 27.462 182.64 27.5128 182.589 27.5128C182.538 27.5635 182.487 27.5635 182.487 27.5635H181.472C181.371 27.5635 181.371 27.5128 181.371 27.462C181.371 27.462 181.371 27.462 181.371 27.4112C181.371 27.4112 181.421 27.3097 181.574 27.1574L183.046 25.1777L181.98 23.8579C181.624 23.4011 181.421 23.1473 181.421 23.1473V23.0965C181.421 23.0458 181.472 22.995 181.523 22.995H182.437C182.487 22.995 182.589 23.0458 182.64 23.0965L184.01 24.9239Z" fill="white"/>
<path d="M192.386 25.4823C192.386 25.6346 192.335 25.6853 192.233 25.6853H189.594C189.594 25.9899 189.645 26.1929 189.797 26.396C189.949 26.599 190.203 26.7005 190.558 26.7005C190.812 26.7005 191.066 26.7005 191.32 26.6498L192.03 26.599C192.132 26.599 192.183 26.6498 192.183 26.7005V27.2589C192.183 27.3604 192.132 27.4112 192.081 27.462C192.03 27.462 191.878 27.5127 191.574 27.5635C191.269 27.6142 190.914 27.6142 190.406 27.6142C189.848 27.6142 189.391 27.462 188.985 27.1066C188.579 26.7513 188.426 26.2437 188.426 25.5838V24.9747C188.426 24.3148 188.579 23.8071 188.934 23.4518C189.289 23.0965 189.746 22.8934 190.355 22.8934C190.964 22.8934 191.421 23.0965 191.777 23.4518C192.132 23.8071 192.284 24.3148 192.284 24.9747V25.4823H192.386ZM191.32 24.9239C191.32 24.5686 191.218 24.3148 191.066 24.1625C190.914 23.9594 190.711 23.9087 190.457 23.9087C190.203 23.9087 190 24.0102 189.848 24.1625C189.695 24.3655 189.594 24.5686 189.594 24.8731V24.9239H191.32Z" fill="white"/>
<path d="M194.568 27.4112C194.568 27.462 194.568 27.5128 194.518 27.5128C194.467 27.5635 194.467 27.5635 194.416 27.5635H193.655C193.604 27.5635 193.553 27.5635 193.553 27.5128C193.502 27.462 193.503 27.462 193.503 27.4112V23.1473C193.503 23.0965 193.502 23.0458 193.553 23.0458C193.604 22.995 193.604 22.995 193.655 22.995H194.416C194.467 22.995 194.518 22.995 194.518 23.0458C194.568 23.0965 194.568 23.0965 194.568 23.1473V24.7716H196.193V23.1473C196.193 23.0965 196.193 23.0458 196.244 23.0458C196.294 22.995 196.294 22.995 196.345 22.995H197.107C197.157 22.995 197.208 22.995 197.208 23.0458C197.259 23.0965 197.259 23.0965 197.259 23.1473V27.4112C197.259 27.462 197.259 27.5128 197.208 27.5128C197.157 27.5635 197.157 27.5635 197.107 27.5635H196.345C196.294 27.5635 196.244 27.5635 196.244 27.5128C196.193 27.462 196.193 27.462 196.193 27.4112V25.6346H194.568V27.4112Z" fill="white"/>
<path d="M199.594 27.4112C199.594 27.462 199.594 27.5128 199.543 27.5128C199.492 27.5635 199.492 27.5635 199.442 27.5635H198.68C198.629 27.5635 198.579 27.5635 198.579 27.5128C198.528 27.462 198.528 27.462 198.528 27.4112V23.1473C198.528 23.0965 198.528 23.0458 198.579 23.0458C198.629 22.995 198.629 22.995 198.68 22.995H199.442C199.492 22.995 199.543 22.995 199.543 23.0458C199.594 23.0965 199.594 23.0965 199.594 23.1473V24.7716H201.218V23.1473C201.218 23.0965 201.218 23.0458 201.269 23.0458C201.32 22.995 201.32 22.995 201.371 22.995H202.132C202.183 22.995 202.233 22.995 202.233 23.0458C202.284 23.0965 202.284 23.0965 202.284 23.1473V27.4112C202.284 27.462 202.284 27.5128 202.233 27.5128C202.183 27.5635 202.183 27.5635 202.132 27.5635H201.371C201.32 27.5635 201.269 27.5635 201.269 27.5128C201.218 27.462 201.218 27.462 201.218 27.4112V25.6346H199.594V27.4112Z" fill="white"/>
<path d="M207.259 25.6346C207.259 26.2437 207.107 26.7513 206.751 27.1066C206.396 27.462 205.939 27.665 205.33 27.665C204.721 27.665 204.264 27.462 203.909 27.1066C203.553 26.7513 203.401 26.2437 203.401 25.6346V24.9747C203.401 24.3655 203.553 23.8579 203.909 23.5026C204.264 23.1473 204.721 22.9442 205.33 22.9442C205.939 22.9442 206.396 23.1473 206.751 23.5026C207.107 23.8579 207.259 24.3655 207.259 24.9747V25.6346ZM206.193 25.6346V24.9747C206.193 24.6193 206.142 24.3655 205.99 24.1625C205.838 23.9594 205.635 23.8579 205.33 23.8579C205.025 23.8579 204.822 23.9594 204.67 24.1625C204.518 24.3655 204.467 24.6193 204.467 24.9747V25.6346C204.467 25.9899 204.518 26.2437 204.67 26.4467C204.822 26.6498 205.025 26.7513 205.33 26.7513C205.584 26.7513 205.838 26.6498 205.99 26.4467C206.142 26.2437 206.193 25.9899 206.193 25.6346Z" fill="white"/>
<path d="M209.898 23.9595C209.645 23.9595 209.492 24.1118 209.492 24.4163V27.462C209.492 27.5128 209.492 27.5635 209.442 27.5635C209.391 27.5635 209.391 27.6143 209.34 27.6143H208.579C208.528 27.6143 208.477 27.6143 208.477 27.5635C208.477 27.5128 208.426 27.5128 208.426 27.462V24.4163C208.426 23.9087 208.528 23.5534 208.782 23.3503C209.036 23.1473 209.391 23.0458 209.898 23.0458H210.863C210.914 23.0458 210.964 23.0458 210.964 23.0965C210.964 23.1473 211.015 23.1473 211.015 23.1981V23.8072C211.015 23.858 211.015 23.9087 210.964 23.9087C210.914 23.9087 210.914 23.9595 210.863 23.9595H209.898Z" fill="white"/>
<path d="M215.635 25.6346C215.635 26.2437 215.482 26.7513 215.127 27.1066C214.772 27.462 214.315 27.665 213.706 27.665C213.096 27.665 212.64 27.462 212.284 27.1066C211.929 26.7513 211.777 26.2437 211.777 25.6346V24.9747C211.777 24.3655 211.929 23.8579 212.284 23.5026C212.64 23.1473 213.096 22.9442 213.706 22.9442C214.315 22.9442 214.772 23.1473 215.127 23.5026C215.482 23.8579 215.635 24.3655 215.635 24.9747V25.6346ZM214.518 25.6346V24.9747C214.518 24.6193 214.467 24.3655 214.315 24.1625C214.162 23.9594 213.959 23.8579 213.655 23.8579C213.401 23.8579 213.147 23.9594 212.995 24.1625C212.843 24.3655 212.792 24.6193 212.792 24.9747V25.6346C212.792 25.9899 212.843 26.2437 212.995 26.4467C213.147 26.6498 213.35 26.7513 213.655 26.7513C213.909 26.7513 214.162 26.6498 214.315 26.4467C214.467 26.2437 214.518 25.9899 214.518 25.6346Z" fill="white"/>
<path d="M221.878 27.3097C221.878 27.4112 221.878 27.462 221.827 27.462C221.777 27.5127 221.675 27.5127 221.472 27.5635C221.269 27.6142 221.015 27.6142 220.66 27.6142C220.102 27.6142 219.645 27.462 219.289 27.1066C218.934 26.7513 218.782 26.2944 218.782 25.6346V24.8731C218.782 24.264 218.934 23.7564 219.289 23.401C219.645 23.0457 220.051 22.8934 220.66 22.8934C220.964 22.8934 221.269 22.8934 221.472 22.9442C221.675 22.995 221.777 22.995 221.827 23.0457C221.878 23.0965 221.878 23.1472 221.878 23.198V23.7056C221.878 23.8071 221.827 23.8071 221.726 23.8071C221.421 23.7564 221.066 23.7564 220.66 23.7564C220.152 23.7564 219.898 24.1117 219.898 24.8224V25.5838C219.898 26.2944 220.152 26.6498 220.66 26.6498C220.914 26.6498 221.117 26.6498 221.269 26.6498L221.726 26.599C221.827 26.599 221.878 26.6498 221.878 26.7005V27.3097Z" fill="white"/>
<path d="M226.701 25.6346C226.701 26.2437 226.548 26.7513 226.193 27.1066C225.838 27.462 225.381 27.665 224.772 27.665C224.162 27.665 223.706 27.462 223.35 27.1066C222.995 26.7513 222.843 26.2437 222.843 25.6346V24.9747C222.843 24.3655 222.995 23.8579 223.35 23.5026C223.706 23.1473 224.162 22.9442 224.772 22.9442C225.381 22.9442 225.838 23.1473 226.193 23.5026C226.548 23.8579 226.701 24.3655 226.701 24.9747V25.6346ZM225.635 25.6346V24.9747C225.635 24.6193 225.584 24.3655 225.431 24.1625C225.279 23.9594 225.076 23.8579 224.772 23.8579C224.467 23.8579 224.264 23.9594 224.112 24.1625C223.959 24.3655 223.909 24.6193 223.909 24.9747V25.6346C223.909 25.9899 223.959 26.2437 224.112 26.4467C224.264 26.6498 224.467 26.7513 224.772 26.7513C225.025 26.7513 225.279 26.6498 225.431 26.4467C225.584 26.2437 225.635 25.9899 225.635 25.6346Z" fill="white"/>
<path d="M228.934 27.4112C228.934 27.462 228.934 27.5127 228.883 27.5127C228.832 27.5635 228.832 27.5635 228.782 27.5635H228.02C227.97 27.5635 227.919 27.5635 227.919 27.5127C227.868 27.462 227.868 27.462 227.868 27.4112V23.1473C227.868 23.0965 227.868 23.0457 227.919 23.0457C227.97 23.0457 227.97 22.995 228.02 22.995H228.782C228.832 22.995 228.883 22.995 228.883 23.0457C228.934 23.0965 228.934 23.0965 228.934 23.1473V24.8224H229.949C230 24.2132 230.152 23.7564 230.508 23.4518C230.863 23.0965 231.32 22.9442 231.878 22.9442C232.487 22.9442 232.944 23.1473 233.299 23.5026C233.655 23.8579 233.807 24.3655 233.807 24.9747V25.6346C233.807 26.2437 233.655 26.7513 233.299 27.1066C232.944 27.462 232.487 27.665 231.878 27.665C231.32 27.665 230.863 27.5127 230.508 27.1574C230.152 26.8528 230 26.3452 229.949 25.7869H228.934V27.4112ZM232.741 25.6346V24.9747C232.741 24.6193 232.69 24.3655 232.538 24.1625C232.386 23.9594 232.183 23.8579 231.878 23.8579C231.624 23.8579 231.371 23.9594 231.218 24.1625C231.066 24.3655 231.015 24.6193 231.015 24.9747V25.6346C231.015 25.9899 231.066 26.2437 231.218 26.4467C231.371 26.6498 231.574 26.7513 231.878 26.7513C232.183 26.7513 232.386 26.6498 232.538 26.4467C232.69 26.2437 232.741 25.9899 232.741 25.6346Z" fill="white"/>
<path d="M237.969 26.2436C237.969 27.1574 237.36 27.6142 236.142 27.6142C235.838 27.6142 235.533 27.6142 235.228 27.5634C234.924 27.5127 234.772 27.4619 234.721 27.4619C234.67 27.4112 234.67 27.4112 234.67 27.3604V26.802C234.67 26.7513 234.721 26.7005 234.822 26.7005C235.381 26.7513 235.838 26.802 236.142 26.802C236.447 26.802 236.65 26.7513 236.751 26.7005C236.853 26.6497 236.904 26.4975 236.904 26.2944V26.1929C236.904 25.9898 236.853 25.8376 236.751 25.7868C236.65 25.736 236.497 25.6853 236.294 25.6853H235.025C234.924 25.6853 234.873 25.6345 234.873 25.5837V25.0254C234.873 24.9238 234.924 24.9238 235.025 24.9238H236.244C236.447 24.9238 236.599 24.8731 236.7 24.8223C236.802 24.7716 236.853 24.6193 236.853 24.4162V24.3655C236.853 24.1624 236.802 24.0609 236.65 24.0101C236.548 23.9594 236.345 23.9086 236.091 23.9086C235.939 23.9086 235.736 23.9086 235.482 23.9594L234.772 24.0101C234.67 24.0101 234.619 23.9594 234.619 23.9086V23.3502C234.619 23.2995 234.619 23.2995 234.67 23.2487C234.721 23.198 234.873 23.198 235.178 23.1472C235.482 23.0964 235.787 23.0964 236.091 23.0964C236.751 23.0964 237.208 23.198 237.513 23.401C237.817 23.604 237.969 23.9594 237.969 24.3655V24.4162C237.969 24.8223 237.766 25.1269 237.36 25.3299C237.563 25.3807 237.665 25.533 237.766 25.736C237.868 25.9391 237.919 26.0914 237.919 26.2944V26.2436H237.969Z" fill="white"/>
<path d="M242.487 27.4112C242.487 27.4619 242.487 27.5127 242.437 27.5127C242.386 27.5127 242.386 27.5635 242.335 27.5635H241.624C241.574 27.5635 241.523 27.5635 241.523 27.5127C241.523 27.4619 241.472 27.4619 241.472 27.4112V27.2589C241.066 27.5127 240.711 27.6142 240.305 27.6142C239.848 27.6142 239.492 27.5127 239.239 27.2589C238.985 27.0558 238.883 26.7005 238.883 26.2437V26.1929C238.883 25.7361 239.035 25.3807 239.34 25.1269C239.645 24.8731 240.152 24.7716 240.863 24.7716H241.371V24.4163C241.371 24.1624 241.32 24.0102 241.218 23.9086C241.117 23.8071 240.914 23.7564 240.66 23.7564C240.406 23.7564 240.203 23.7564 239.949 23.7564L239.34 23.8071H239.289C239.188 23.8071 239.137 23.7564 239.137 23.6548V23.1472C239.137 23.0965 239.137 23.0457 239.188 22.9949C239.239 22.9442 239.391 22.9442 239.695 22.8934C240 22.8427 240.305 22.8427 240.609 22.8427C241.777 22.8427 242.386 23.3503 242.386 24.4163V27.4112H242.487ZM241.421 26.5482V25.533H240.914C240.609 25.533 240.355 25.5838 240.203 25.6853C240.051 25.7868 240 25.9391 240 26.2437V26.2944C240 26.4975 240.051 26.599 240.101 26.7005C240.203 26.7513 240.355 26.802 240.558 26.802C240.863 26.802 241.117 26.7005 241.421 26.5482Z" fill="white"/>
<path d="M18.3756 20.6599L8.07104 10.3046L18.3756 0L28.6802 10.3046L18.3756 20.6599Z" fill="white"/>
<path d="M30.9137 12.2843L20.7614 22.4366L18.3756 24.8224L15.9898 22.4366L5.83756 12.2843C2.2335 15.2285 0 19.3909 0 24.0102C0 32.8427 8.22335 40 18.3756 40C28.5279 40 36.7513 32.8427 36.7513 24.0102C36.7513 19.3909 34.5178 15.2285 30.9137 12.2843Z" fill="#0098CE"/>
<path d="M99.3401 38.0203C99.3401 38.1218 99.2893 38.1726 99.2386 38.1726C99.1878 38.2234 98.934 38.2234 98.4772 38.2741C98.0203 38.3249 97.5127 38.3249 96.8528 38.3249C96.0914 38.3249 95.4315 38.1218 94.8731 37.665C94.3147 37.2081 94.0609 36.599 94.0609 35.7361V34.5178C94.0609 33.6548 94.3147 33.0457 94.8731 32.5889C95.3807 32.132 96.0914 31.929 96.9035 31.929C97.4619 31.929 98.0203 31.929 98.4772 31.9797C98.934 32.0305 99.2386 32.0812 99.2893 32.0812C99.3401 32.0812 99.3909 32.132 99.3909 32.2335V32.7919C99.3909 32.8934 99.3401 32.9442 99.1878 32.9442H99.1371C98.4772 32.8934 97.7665 32.8934 96.9543 32.8934C96.5482 32.8934 96.1929 33.0457 95.9391 33.2995C95.6853 33.5533 95.5838 33.9594 95.5838 34.467V35.6853C95.5838 36.1929 95.6853 36.599 95.9391 36.8528C96.1929 37.1066 96.4975 37.2589 96.9035 37.2589C97.2589 37.2589 97.6142 37.2589 97.9188 37.2589V35.1269C97.9188 35.0762 97.9188 35.0254 97.9695 35.0254C98.0203 34.9746 98.0711 34.9746 98.1218 34.9746H99.1371C99.1878 34.9746 99.2386 34.9746 99.2893 35.0254C99.3401 35.0762 99.3401 35.0762 99.3401 35.1269V38.0203Z" fill="white"/>
<path d="M105.127 35.6345L106.751 38.1218V38.1726C106.751 38.2234 106.7 38.2741 106.599 38.2741H105.33C105.279 38.2741 105.228 38.2741 105.228 38.2234C105.228 38.2234 105.127 38.0711 104.975 37.868L103.655 35.8376H103.553C103.35 35.8376 103.046 35.8376 102.64 35.7868V38.0711C102.64 38.1218 102.64 38.1726 102.589 38.1726C102.538 38.2234 102.487 38.2234 102.437 38.2234H101.421C101.371 38.2234 101.32 38.2234 101.269 38.1726C101.218 38.1218 101.218 38.1218 101.218 38.0711V32.2843C101.218 32.1828 101.269 32.132 101.32 32.0812C101.421 32.0305 101.675 31.9797 102.132 31.9797C102.589 31.929 103.096 31.929 103.553 31.929C104.518 31.929 105.279 32.0812 105.787 32.4366C106.294 32.7411 106.548 33.2487 106.548 33.8579V33.9087C106.548 34.7716 106.091 35.33 105.127 35.6345ZM105.127 33.9087V33.8579C105.127 33.5533 104.975 33.2995 104.721 33.1472C104.467 32.9949 104.061 32.9442 103.553 32.9442C103.198 32.9442 102.893 32.9442 102.64 32.9949V34.8731C103.046 34.8731 103.35 34.8731 103.553 34.8731C104.112 34.8731 104.518 34.8224 104.772 34.6701C105.025 34.5178 105.127 34.264 105.127 33.9087Z" fill="white"/>
<path d="M113.706 35.7361C113.706 36.599 113.452 37.2589 112.944 37.7158C112.437 38.1726 111.675 38.3757 110.761 38.3757C109.797 38.3757 109.086 38.1726 108.579 37.7158C108.071 37.2589 107.817 36.599 107.817 35.7361V34.6193C107.817 33.7056 108.071 33.0457 108.629 32.6396C109.188 32.1828 109.898 31.9797 110.812 31.9797C111.777 31.9797 112.487 32.1828 112.995 32.6396C113.503 33.0965 113.756 33.7564 113.756 34.6193V35.7361H113.706ZM112.234 35.7361V34.6193C112.234 34.061 112.132 33.6549 111.878 33.4011C111.624 33.1473 111.269 32.995 110.711 32.995C110.203 32.995 109.797 33.1473 109.543 33.4011C109.289 33.6549 109.188 34.061 109.188 34.6193V35.7361C109.188 36.2945 109.289 36.7006 109.543 36.9544C109.797 37.2082 110.152 37.3604 110.711 37.3604C111.218 37.3604 111.624 37.2082 111.878 36.9544C112.132 36.6498 112.234 36.2437 112.234 35.7361Z" fill="white"/>
<path d="M121.015 35.9391C121.015 37.5127 120.051 38.3249 118.173 38.3249C116.244 38.3249 115.279 37.5127 115.279 35.9391V32.132C115.279 32.0813 115.279 32.0305 115.33 32.0305C115.381 31.9797 115.431 31.9797 115.482 31.9797H116.497C116.548 31.9797 116.599 31.9797 116.65 32.0305C116.701 32.0813 116.701 32.0813 116.701 32.132V35.9391C116.701 36.4467 116.802 36.8021 117.005 37.0051C117.208 37.2082 117.563 37.3604 118.122 37.3604C118.629 37.3604 118.985 37.2589 119.188 37.0559C119.391 36.8528 119.492 36.4975 119.492 35.9391V32.132C119.492 32.0813 119.492 32.0305 119.543 32.0305C119.594 31.9797 119.645 31.9797 119.695 31.9797H120.711C120.761 31.9797 120.812 31.9797 120.863 32.0305C120.914 32.0813 120.914 32.0813 120.914 32.132V35.9391H121.015Z" fill="white"/>
<path d="M128.173 33.9594C128.173 34.3655 128.071 34.7716 127.817 35.0254C127.563 35.33 127.259 35.533 126.802 35.6853C126.345 35.8376 125.787 35.8883 125.178 35.8883C124.975 35.8883 124.67 35.8883 124.264 35.8376V38.0203C124.264 38.0711 124.264 38.1218 124.213 38.1218C124.162 38.1726 124.112 38.1726 124.061 38.1726H123.046C122.995 38.1726 122.944 38.1726 122.893 38.1218C122.843 38.0711 122.843 38.0711 122.843 38.0203V32.2843C122.843 32.1828 122.893 32.132 122.944 32.0812C123.046 32.0305 123.299 31.9797 123.756 31.9797C124.213 31.929 124.721 31.929 125.178 31.929C126.142 31.929 126.904 32.0812 127.411 32.4366C127.919 32.7411 128.173 33.2488 128.173 33.9087V33.9594ZM126.751 33.9594V33.9087C126.751 33.5533 126.65 33.2995 126.396 33.1472C126.142 32.9949 125.736 32.8934 125.228 32.8934C124.873 32.8934 124.569 32.8934 124.315 32.9442V34.9746C124.721 34.9746 125.025 34.9746 125.228 34.9746C125.787 34.9746 126.142 34.8731 126.396 34.7208C126.599 34.5685 126.751 34.3147 126.751 33.9594Z" fill="white"/>
<path d="M130.558 6.34521H112.437C112.183 6.34521 111.98 6.54826 111.98 6.80207V10.6599C111.98 10.9137 112.183 11.1168 112.437 11.1168H118.223C118.477 11.1168 118.68 11.3198 118.68 11.5736V26.8021C118.68 27.0559 118.883 27.2589 119.137 27.2589H123.959C124.213 27.2589 124.416 27.0559 124.416 26.8021V11.5736C124.416 11.3198 124.619 11.1168 124.873 11.1168H130.66C130.914 11.1168 131.117 10.9137 131.117 10.6599V6.80207C131.015 6.4975 130.812 6.34521 130.558 6.34521Z" fill="white"/>
<path d="M109.949 6.34521H96.3452C94.7716 6.39598 93.5025 7.66501 93.5025 9.23862V9.28938V26.7005C93.5025 26.9544 93.7056 27.1574 93.9594 27.1574H98.7817C99.0355 27.1574 99.2386 26.9544 99.2386 26.7005V19.9493C99.2386 19.6955 99.4416 19.4924 99.6954 19.4924H107.107C107.36 19.4924 107.563 19.2894 107.563 19.0356V15.2285C107.563 14.9747 107.36 14.7716 107.107 14.7716H99.6447C99.3909 14.7716 99.1878 14.5686 99.1878 14.3148V11.4721C99.1878 11.2183 99.3909 11.0153 99.6447 11.0153H109.949C110.203 11.0153 110.406 10.8122 110.406 10.5584V6.70054C110.355 6.4975 110.152 6.34521 109.949 6.34521Z" fill="white"/>
<path d="M66.802 6.34521H62.9442C62.6904 6.34521 62.4873 6.54826 62.4873 6.80207V18.6295C62.4873 18.7818 62.3858 18.8833 62.2335 18.8833C62.132 18.8833 62.0812 18.8325 62.0305 18.731L53.9594 7.91882C53.2487 6.95435 52.0812 6.34521 50.8122 6.34521C48.6294 6.34521 46.802 8.12186 46.802 10.3554V26.7005C46.802 26.9544 47.0051 27.1574 47.2589 27.1574H51.1168C51.3706 27.1574 51.5736 26.9544 51.5736 26.7005V14.8224C51.5736 14.6701 51.6751 14.5686 51.8274 14.5686C51.9289 14.5686 51.9797 14.6193 52.0305 14.7208L60.0508 25.533C60.7614 26.4975 61.9289 27.1066 63.2487 27.1066C65.4315 27.1066 67.2589 25.33 67.2589 23.0965V6.75131C67.2081 6.4975 67.0558 6.34521 66.802 6.34521Z" fill="white"/>
<path d="M151.269 26.6497L144.975 9.49235C144.924 9.34006 144.873 9.13702 144.772 8.98473V8.93397C144.772 8.93397 144.772 8.88321 144.721 8.88321C143.909 7.10656 142.132 5.83752 140.051 5.83752C138.02 5.83752 136.244 7.00504 135.431 8.73093C135.381 8.78169 135.33 8.83245 135.33 8.88321L128.832 26.5482C128.782 26.7512 128.883 26.9543 129.137 26.9543H134.213C134.569 26.9543 134.619 26.8528 134.721 26.6497L136.244 22.4873C136.345 22.2335 136.548 22.0812 136.853 22.0812H143.35C143.604 22.0812 143.858 22.2335 143.959 22.4873L145.482 26.6497C145.584 26.8528 145.635 26.9543 145.99 26.9543H151.066C151.168 27.0558 151.32 26.8528 151.269 26.6497ZM138.223 17.868C138.122 17.868 138.02 17.7665 138.02 17.6649C138.02 17.6142 138.02 17.6142 138.02 17.6142L139.746 12.8426C139.797 12.7411 139.898 12.6396 140 12.6396C140.102 12.6396 140.203 12.7411 140.254 12.8426L141.98 17.6142V17.6649C141.98 17.7665 141.878 17.868 141.777 17.868H138.223Z" fill="white"/>
<path d="M91.1675 26.6497L84.8731 9.49235C84.8223 9.34006 84.7716 9.13702 84.67 8.98473V8.93397C84.67 8.93397 84.67 8.88321 84.6193 8.88321C83.8071 7.10656 82.0304 5.83752 79.9492 5.83752C77.9188 5.83752 76.1421 7.00504 75.3299 8.73093C75.2792 8.78169 75.2284 8.83245 75.2284 8.88321L68.731 26.5482C68.6802 26.7512 68.7817 26.9543 69.0355 26.9543H74.1117C74.467 26.9543 74.5178 26.8528 74.6193 26.6497L76.1421 22.4873C76.2436 22.2335 76.4467 22.0812 76.7513 22.0812H83.2487C83.5025 22.0812 83.7563 22.2335 83.8579 22.4873L85.3807 26.6497C85.4822 26.8528 85.533 26.9543 85.8883 26.9543H90.9644C91.1167 27.0558 91.269 26.8528 91.1675 26.6497ZM78.1218 17.868C78.0203 17.868 77.9188 17.7665 77.9188 17.6649C77.9188 17.6142 77.9188 17.6142 77.9188 17.6142L79.6447 12.8426C79.6954 12.7411 79.7969 12.6396 79.8985 12.6396C80 12.6396 80.1015 12.7411 80.1523 12.8426L81.8782 17.6142V17.6649C81.8782 17.7665 81.7766 17.868 81.6751 17.868H78.1218Z" fill="white"/>
<path d="M91.4213 33.9594H46.802V35.8883H91.4213V33.9594Z" fill="#0098CE"/>
<path d="M151.269 33.9594H130.812V35.8883H151.269V33.9594Z" fill="#0098CE"/>
</g>
<defs>
<clipPath id="clip0">
<rect width="283.655" height="40" fill="white"/>
</clipPath>
</defs>
</svg>
