<svg width="18" height="18" viewBox="0 0 18 18" fill="none" xmlns="http://www.w3.org/2000/svg">
<g clip-path="url(#clip0)">
<path d="M1.72764 6.28819C1.95534 6.44887 2.64171 6.92608 3.78677 7.71957C4.93188 8.51306 5.8091 9.12403 6.41849 9.55251C6.48544 9.59948 6.62768 9.70158 6.84528 9.85895C7.06292 10.0164 7.24375 10.1437 7.38765 10.2407C7.53165 10.3378 7.70573 10.4466 7.91006 10.5671C8.11433 10.6875 8.30688 10.7781 8.48768 10.838C8.66852 10.8985 8.83591 10.9284 8.9899 10.9284H9H9.01013C9.16412 10.9284 9.33159 10.8984 9.51242 10.838C9.69315 10.7781 9.88588 10.6874 10.09 10.5671C10.2942 10.4465 10.4682 10.3377 10.6122 10.2407C10.7562 10.1437 10.9369 10.0164 11.1546 9.85895C11.3722 9.70144 11.5146 9.59948 11.5816 9.55251C12.1975 9.12403 13.7647 8.03582 16.2824 6.28798C16.7712 5.94661 17.1796 5.5347 17.5077 5.05253C17.836 4.57057 18 4.06498 18 3.53601C18 3.09399 17.8409 2.71561 17.5228 2.4009C17.2047 2.08613 16.8279 1.92883 16.3928 1.92883H1.60708C1.09148 1.92883 0.694703 2.10291 0.416801 2.45107C0.138934 2.7993 0 3.23458 0 3.75685C0 4.17872 0.184213 4.63587 0.552462 5.12803C0.920676 5.62023 1.31253 6.00698 1.72764 6.28819Z" fill="white"/>
<path d="M16.9954 7.36274C14.7992 8.84921 13.1316 10.0044 11.9934 10.8282C11.6117 11.1093 11.302 11.3288 11.0642 11.4861C10.8264 11.6434 10.5102 11.8041 10.115 11.9681C9.72 12.1324 9.35186 12.2142 9.01027 12.2142H9.00004H8.98994C8.64843 12.2142 8.28007 12.1324 7.88505 11.9681C7.49003 11.8041 7.17356 11.6434 6.93584 11.4861C6.69819 11.3288 6.38844 11.1093 6.00679 10.8282C5.10272 10.1653 3.43868 9.00999 1.01461 7.36274C0.632818 7.10845 0.294649 6.81696 0 6.48889V14.4641C0 14.9064 0.157299 15.2845 0.472071 15.5993C0.786774 15.9141 1.16519 16.0715 1.60718 16.0715H16.393C16.8348 16.0715 17.2132 15.9141 17.528 15.5993C17.8428 15.2844 18 14.9064 18 14.4641V6.48889C17.712 6.81017 17.3773 7.10166 16.9954 7.36274Z" fill="white"/>
</g>
<defs>
<clipPath id="clip0">
<rect width="18" height="18" fill="white"/>
</clipPath>
</defs>
</svg>
