<svg width="18" height="18" viewBox="0 0 18 18" fill="none" xmlns="http://www.w3.org/2000/svg">
<g clip-path="url(#clip0)">
<path d="M17.9611 13.9467C17.9102 13.7933 17.5863 13.5673 16.9896 13.2693C16.8279 13.1753 16.5976 13.0477 16.2996 12.8857C16.0013 12.7238 15.7305 12.5745 15.4878 12.4381C15.2445 12.3018 15.0167 12.1697 14.8038 12.0421C14.7697 12.0165 14.6632 11.942 14.4842 11.8182C14.3051 11.6947 14.154 11.603 14.0302 11.5433C13.9067 11.4838 13.7852 11.4539 13.6658 11.4539C13.4954 11.4539 13.2825 11.5754 13.027 11.8182C12.7714 12.0612 12.5369 12.3252 12.324 12.611C12.111 12.8966 11.8851 13.1606 11.6467 13.4035C11.4079 13.6465 11.2118 13.7679 11.0585 13.7679C10.9816 13.7679 10.8857 13.7465 10.7708 13.7042C10.6559 13.6616 10.5685 13.6251 10.5085 13.5957C10.449 13.5656 10.347 13.5062 10.202 13.4164C10.0567 13.3269 9.97594 13.2778 9.95893 13.2693C8.79138 12.6214 7.79005 11.8799 6.95475 11.045C6.11971 10.2095 5.37813 9.2083 4.73044 8.04062C4.72193 8.02356 4.67281 7.94256 4.58339 7.79775C4.49384 7.65281 4.43415 7.55068 4.40433 7.49086C4.37451 7.43126 4.33828 7.34386 4.29575 7.22883C4.25321 7.1138 4.23185 7.01797 4.23185 6.94118C4.23185 6.78787 4.35333 6.59175 4.59624 6.35309C4.83911 6.11457 5.10338 5.88863 5.38878 5.67571C5.67441 5.4628 5.93841 5.22835 6.18137 4.97277C6.42424 4.71705 6.54567 4.5041 6.54567 4.33368C6.54567 4.21444 6.51585 4.09287 6.45625 3.96933C6.39661 3.84553 6.305 3.69445 6.18137 3.51539C6.0577 3.33642 5.98314 3.22999 5.95753 3.19573C5.82983 2.98282 5.69787 2.75486 5.56135 2.51195C5.42483 2.26909 5.27581 1.99837 5.11381 1.70011C4.95194 1.40199 4.8242 1.1718 4.73035 1.00989C4.43223 0.41342 4.20642 0.0894183 4.05297 0.0384629C3.99328 0.0128956 3.90373 0 3.78454 0C3.5543 0 3.25394 0.0425375 2.88323 0.127881C2.5124 0.213091 2.22059 0.302464 2.0075 0.39636C1.58136 0.575242 1.1297 1.09509 0.652386 1.95574C0.217742 2.7567 0.000442505 3.54946 0.000442505 4.33345C0.000442505 4.56338 0.015353 4.78708 0.0451741 5.00461C0.0749951 5.22191 0.128279 5.46697 0.20507 5.73974C0.281727 6.01243 0.343564 6.215 0.39031 6.34691C0.437101 6.47891 0.52446 6.71538 0.652341 7.05639C0.780043 7.39732 0.856835 7.60602 0.882402 7.68272C1.18066 8.51798 1.53435 9.26364 1.94338 9.91993C2.61637 11.0108 3.53477 12.1381 4.69806 13.3015C5.8614 14.4648 6.98851 15.3831 8.07944 16.0564C8.73564 16.4654 9.48156 16.819 10.3167 17.1175C10.3934 17.1429 10.6021 17.2195 10.9429 17.3477C11.2839 17.4755 11.5204 17.5628 11.6524 17.6097C11.7845 17.6567 11.9871 17.7185 12.2595 17.7953C12.5326 17.8721 12.7774 17.9254 12.9947 17.9554C13.2121 17.9849 13.4359 18 13.6659 18C14.4498 18 15.2426 17.7826 16.0437 17.348C16.9043 16.8709 17.424 16.4191 17.603 15.9927C17.6971 15.7798 17.7862 15.4879 17.8714 15.1171C17.9569 14.7464 17.9994 14.4461 17.9994 14.2159C17.9996 14.0962 17.9868 14.0069 17.9611 13.9467Z" fill="white"/>
</g>
<defs>
<clipPath id="clip0">
<rect width="18" height="18" fill="white"/>
</clipPath>
</defs>
</svg>
