<svg width="64" height="64" viewBox="0 0 64 64" fill="none" xmlns="http://www.w3.org/2000/svg">
<g clip-path="url(#clip0)">
<path d="M47.2501 33.25C47.94 33.25 48.5001 32.6899 48.5001 32C48.5001 31.3101 47.94 30.75 47.2501 30.75C46.5601 30.75 46.0001 31.3101 46.0001 32C46.0001 32.6899 46.5601 33.25 47.2501 33.25Z" fill="#0098CE"/>
<path d="M16.5 33.25C17.19 33.25 17.75 32.6899 17.75 32C17.75 31.3101 17.19 30.75 16.5 30.75C15.8101 30.75 15.25 31.3101 15.25 32C15.25 32.6899 15.8101 33.25 16.5 33.25Z" fill="#0098CE"/>
<path d="M-0.125007 57.0001C-0.125007 57.6905 0.434564 58.2501 1.12499 58.2501H62.6251C63.315 58.2501 63.8751 57.6905 63.8751 57.0001C63.8751 56.3096 63.315 55.7501 62.6251 55.7501H61.2105L62.4151 53.9434C62.7979 53.3687 62.6426 52.5928 62.0684 52.21C61.4942 51.8272 60.7178 51.982 60.335 52.5567L58.8751 54.7466L57.4151 52.5567C57.0323 51.982 56.2559 51.8267 55.6817 52.21C55.107 52.5928 54.9522 53.3687 55.335 53.9434L56.5391 55.7501H51.1812C50.336 52.481 49.8628 49.127 49.7691 45.7501H62.6251C63.0753 45.7501 63.4908 45.5079 63.7125 45.1158C63.9346 44.7242 63.9288 44.2432 63.6968 43.857L57.3326 33.25H60.1251C60.5753 33.25 60.9908 33.0078 61.213 32.6158C61.4346 32.2242 61.4288 31.7432 61.1968 31.357L54.8326 20.75H55.1251C55.5958 20.75 56.0264 20.4859 56.2393 20.0664C56.4527 19.6465 56.4122 19.1431 56.1348 18.7627L47.0098 6.26318C46.7745 5.94043 46.3995 5.75 46 5.75C45.6006 5.75 45.2256 5.94043 44.9903 6.26318L35.8653 18.7627C35.5879 19.1431 35.5474 19.6465 35.7608 20.0664C35.9737 20.4859 36.4043 20.75 36.875 20.75H37.167L31.875 29.5703L26.583 20.75H26.875C27.3457 20.75 27.7764 20.4859 27.9893 20.0664C28.2027 19.6465 28.1621 19.1431 27.8848 18.7627L18.7598 6.26318C18.5244 5.94043 18.1494 5.75 17.75 5.75C17.3506 5.75 16.9756 5.94043 16.7402 6.26318L7.61524 18.7627C7.33789 19.1431 7.29736 19.6465 7.51074 20.0664C7.72363 20.4859 8.1543 20.75 8.625 20.75H8.91748L2.55322 31.357C2.32129 31.7427 2.31543 32.2242 2.53711 32.6158C2.75927 33.0078 3.1748 33.25 3.625 33.25H6.41748L0.0532158 43.857C-0.178718 44.2427 -0.184577 44.7242 0.0371025 45.1158C0.259271 45.5079 0.674799 45.7501 1.12499 45.7501H13.981C13.8872 49.127 13.4141 52.481 12.5689 55.7501H7.21045L8.41504 53.9434C8.79786 53.3687 8.64307 52.5928 8.06836 52.21C7.49414 51.8272 6.71777 51.982 6.33496 52.5567L4.875 54.7466L3.41504 52.5567C3.03222 51.982 2.25634 51.8267 1.68164 52.21C1.10693 52.5928 0.952143 53.3687 1.33496 53.9434L2.53955 55.7501H1.12499C0.434564 55.7501 -0.125007 56.3096 -0.125007 57.0001ZM42.231 45.7501C42.1372 49.127 41.6641 52.481 40.8189 55.7501H32.9605L34.1651 53.9434C34.5479 53.3687 34.3926 52.5928 33.8184 52.21C33.2442 51.8272 32.4678 51.982 32.085 52.5567L30.625 54.7466L29.1651 52.5567C28.7823 51.982 28.0059 51.8267 27.4317 52.21C26.857 52.5928 26.7022 53.3687 27.085 53.9434L28.2896 55.7501H22.9312C22.0864 52.481 21.6128 49.127 21.5191 45.7501H42.231ZM34.667 33.25L31.875 37.9039L29.0825 33.25H34.667ZM48.6026 55.7501H43.3975C44.1968 52.4752 44.6431 49.1226 44.732 45.7501H47.2681C47.357 49.1231 47.8033 52.4752 48.6026 55.7501ZM40.0826 20.75H42.25C42.9405 20.75 43.5 20.1904 43.5 19.5C43.5 18.8096 42.9405 18.25 42.25 18.25H39.335L46 9.12012L52.6651 18.25H47.25C46.5596 18.25 46 18.8096 46 19.5C46 20.1904 46.5596 20.75 47.25 20.75H51.917L57.9171 30.75C55.9395 30.75 54.2481 30.75 52.2501 30.75C51.5596 30.75 51.0001 31.3096 51.0001 32C51.0001 32.6905 51.5596 33.25 52.2501 33.25H54.417L60.4171 43.25H31.583C33.1724 40.6011 35.8892 36.0728 37.5826 33.25H42.25C42.9405 33.25 43.5 32.6905 43.5 32C43.5 31.3096 42.9405 30.75 42.25 30.75H34.0826L40.0826 20.75ZM9.33301 33.25H11.5C12.1904 33.25 12.75 32.6905 12.75 32C12.75 31.3096 12.1904 30.75 11.5 30.75H5.83252L11.8325 20.75H16.5C17.1904 20.75 17.75 20.1904 17.75 19.5C17.75 18.8096 17.1904 18.25 16.5 18.25H11.085L17.75 9.12012L24.4151 18.25H21.5C20.8096 18.25 20.25 18.8096 20.25 19.5C20.25 20.1904 20.8096 20.75 21.5 20.75H23.667L29.667 30.75C28.834 30.75 22.4263 30.75 21.5 30.75C20.8096 30.75 20.25 31.3096 20.25 32C20.25 32.6905 20.8096 33.25 21.5 33.25H26.167L30.417 40.3335L28.6675 43.25H3.333L9.33301 33.25ZM16.4819 45.7501H19.0181C19.1069 49.1226 19.5532 52.4752 20.3526 55.7501H15.1475C15.9468 52.4752 16.3931 49.1231 16.4819 45.7501Z" fill="#0098CE"/>
</g>
<defs>
<clipPath id="clip0">
<rect width="64" height="64" fill="white"/>
</clipPath>
</defs>
</svg>
