<svg width="64" height="64" viewBox="0 0 64 64" fill="none" xmlns="http://www.w3.org/2000/svg">
<path d="M62.75 30.089H53.557C52.8667 30.089 52.307 30.6487 52.307 31.339V34.4779H38.6689V31.172H41.8078C42.498 31.172 43.0578 30.6123 43.0578 29.922V21.979C43.0578 21.2888 42.498 20.729 41.8078 20.729H37.28V19.562H38.7411C39.0275 19.562 39.3051 19.4638 39.5276 19.2835L43.795 15.8289H53.1171C53.8074 15.8289 54.3671 15.2692 54.3671 14.5789V8.81503C54.3671 8.12478 53.8074 7.56504 53.1171 7.56504H41.3119C41.0255 7.56504 40.7479 7.66329 40.5254 7.84354L37.0938 10.6217C36.4884 8.41891 34.4692 6.79541 32.077 6.79541C29.4456 6.79541 27.2656 8.75929 26.9223 11.298H26.0352C25.345 11.298 24.7852 11.8578 24.7852 12.548V18.3122C24.7852 19.0024 25.345 19.5622 26.0352 19.5622H26.8738V20.7292H22.1924C21.502 20.7292 20.9424 21.2889 20.9424 21.9792V29.9222C20.9424 30.6124 21.502 31.1722 22.1924 31.1722H25.3312V34.478H11.693V31.3392C11.693 30.6488 11.1333 30.0892 10.443 30.0892H1.25C0.559625 30.0892 0 30.6488 0 31.3392V55.9548C0 56.645 0.559625 57.2048 1.25 57.2048H10.443C11.1333 57.2048 11.693 56.645 11.693 55.9548V52.8158H52.307V55.9548C52.307 56.645 52.8667 57.2048 53.557 57.2048H62.75C63.4403 57.2048 64 56.645 64 55.9548V31.339C64 30.6487 63.4403 30.089 62.75 30.089ZM9.193 54.7047H2.5V32.589H9.193V54.7047ZM32.0769 9.29516C33.3251 9.29516 34.3785 10.1458 34.688 11.2978H29.4657C29.7751 10.1458 30.8286 9.29516 32.0769 9.29516ZM27.2851 13.798H36.7006C36.987 13.798 37.2646 13.6998 37.4871 13.5197L41.7544 10.0649H51.8671V13.329H43.3525C43.0661 13.329 42.7885 13.4273 42.566 13.6075L38.2986 17.0622H27.2851V13.798ZM34.78 19.562V20.729H29.3736V19.562H34.78ZM23.4422 28.6719V27.2005H32.5899C33.2801 27.2005 33.8399 26.6408 33.8399 25.9505C33.8399 25.2602 33.2801 24.7005 32.5899 24.7005H23.4422V23.2289H40.5578V28.6719H23.4422ZM52.307 50.3155H11.693V46.5655H52.307V50.3155ZM52.307 44.0655H11.693V36.9779H26.5811C27.2715 36.9779 27.8311 36.4183 27.8311 35.7279V31.172H36.1688V35.7279C36.1688 36.4183 36.7285 36.9779 37.4188 36.9779H52.3069V39.2235H26.0351C25.3449 39.2235 24.7851 39.7833 24.7851 40.4735C24.7851 41.1638 25.3449 41.7235 26.0351 41.7235H52.307V44.0655ZM61.5 54.7047H54.807V32.589H61.5V54.7047Z" fill="#0098CE"/>
<path d="M38.6485 25.7062C38.6322 25.6262 38.6086 25.5474 38.5774 25.4725C38.5461 25.3974 38.5074 25.3249 38.4624 25.2563C38.4161 25.1888 38.3649 25.1238 38.3074 25.0663C38.0161 24.7763 37.5849 24.6437 37.1786 24.725C37.0986 24.7413 37.0199 24.765 36.9449 24.7963C36.8699 24.8275 36.7974 24.8663 36.7287 24.9113C36.66 24.9562 36.5961 25.0087 36.5386 25.0663C36.4811 25.1238 36.4286 25.1887 36.3836 25.2563C36.3387 25.325 36.2999 25.3975 36.2686 25.4725C36.2374 25.5475 36.2137 25.6262 36.1975 25.7062C36.1812 25.7874 36.1725 25.8688 36.1725 25.9511C36.1725 26.0324 36.1812 26.1138 36.1975 26.1949C36.2137 26.2749 36.2374 26.3536 36.2686 26.4286C36.2999 26.5038 36.3387 26.5761 36.3836 26.6449C36.4286 26.7124 36.4811 26.7761 36.5386 26.8349C36.5961 26.8924 36.66 26.9449 36.7287 26.9899C36.7975 27.0349 36.87 27.0736 36.9449 27.1049C37.02 27.1361 37.0986 27.16 37.1786 27.1761C37.2586 27.1924 37.3411 27.201 37.4224 27.201C37.5036 27.201 37.5861 27.1924 37.6674 27.1761C37.7474 27.1599 37.8261 27.1361 37.9011 27.1049C37.9761 27.0736 38.0486 27.035 38.1174 26.9899C38.1849 26.9449 38.2499 26.8924 38.3074 26.8349C38.3649 26.7761 38.4161 26.7124 38.4624 26.6449C38.5072 26.576 38.5461 26.5036 38.5774 26.4286C38.6086 26.3536 38.6324 26.2749 38.6485 26.1949C38.6647 26.1138 38.6722 26.0324 38.6722 25.9511C38.6722 25.8688 38.6646 25.7874 38.6485 25.7062Z" fill="#0098CE"/>
<path d="M22.4274 40.2286C22.4111 40.1499 22.3874 40.071 22.3561 39.9949C22.3249 39.9198 22.2861 39.8474 22.2411 39.7799C22.1949 39.711 22.1436 39.6473 22.0861 39.5898C22.0286 39.5323 21.9638 39.4798 21.8961 39.4335C21.8274 39.3885 21.7549 39.351 21.6799 39.3198C21.6049 39.2885 21.5263 39.2635 21.4461 39.2473C21.285 39.2148 21.1188 39.2148 20.9575 39.2473C20.8774 39.2635 20.7986 39.2885 20.7238 39.3198C20.6488 39.351 20.5761 39.3885 20.5075 39.4335C20.44 39.4798 20.375 39.5323 20.3175 39.5898C20.26 39.6473 20.2088 39.711 20.1625 39.7799C20.1175 39.8474 20.0788 39.9198 20.0475 39.9949C20.0163 40.071 19.9925 40.1499 19.9763 40.2286C19.96 40.3098 19.9513 40.3923 19.9513 40.4736C19.9513 40.5549 19.96 40.6374 19.9763 40.7174C19.9924 40.7974 20.0163 40.8761 20.0475 40.951C20.0788 41.0273 20.1175 41.0998 20.1625 41.1673C20.2088 41.236 20.26 41.2998 20.3175 41.3573C20.375 41.4148 20.44 41.4674 20.5075 41.5123C20.5763 41.5573 20.6488 41.596 20.7238 41.6273C20.7988 41.6585 20.8775 41.6835 20.9575 41.6985C21.0386 41.7148 21.12 41.7235 21.2025 41.7235C21.2836 41.7235 21.365 41.7148 21.4461 41.6985C21.5263 41.6835 21.6049 41.6585 21.6799 41.6273C21.7549 41.596 21.8275 41.5573 21.8961 41.5123C21.9636 41.4674 22.0286 41.4148 22.0861 41.3573C22.1436 41.2998 22.1949 41.236 22.2411 41.1673C22.2861 41.0998 22.3249 41.0273 22.3561 40.951C22.3874 40.876 22.4111 40.7974 22.4274 40.7174C22.4436 40.6373 22.451 40.5548 22.451 40.4736C22.451 40.3924 22.4435 40.3098 22.4274 40.2286Z" fill="#0098CE"/>
</svg>
