<svg width="64" height="64" viewBox="0 0 64 64" fill="none" xmlns="http://www.w3.org/2000/svg">
<path d="M53.6774 33.0323V40.2581H44.7154C42.8005 40.2581 40.8671 39.6098 39.0865 38.3556C38.527 37.9644 38.1935 37.2831 38.1935 36.5347V35.0968H43.3548V28.9032H20.6452V35.0968H25.8064V36.5347C25.8064 37.2841 25.473 37.9654 24.8723 38.3845C23.1319 39.6098 21.1995 40.2581 19.2846 40.2581H10.3226V33.0323H0V64H10.3226V56.7742H19.2846C21.2418 56.7742 23.1339 57.3946 24.7577 58.5652C26.8748 60.095 29.3801 60.9032 32 60.9032C34.6199 60.9032 37.1252 60.095 39.2434 58.5652C40.8671 57.3946 42.7592 56.7742 44.7154 56.7742H53.6774V64H64V33.0323H53.6774ZM8.25806 61.9355H2.06452V35.0968H8.25806V61.9355ZM22.7097 33.0323V30.9677H41.2903V33.0323H22.7097ZM53.6774 54.7097H44.7154C42.3226 54.7097 40.0124 55.4643 38.0346 56.8919C36.2715 58.1657 34.1832 58.8387 32 58.8387C29.8168 58.8387 27.7285 58.1657 25.9644 56.8919C23.9866 55.4643 21.6774 54.7097 19.2846 54.7097H10.3226V42.3226H19.2846C21.6289 42.3226 23.9721 41.5443 26.0975 40.0475C27.2072 39.2702 27.871 37.9572 27.871 36.5347V35.0968H36.129V36.5347C36.129 37.9572 36.7928 39.2702 37.9386 40.0723C40.0279 41.5443 42.3721 42.3226 44.7154 42.3226H53.6774V54.7097ZM61.9355 61.9355H55.7419V35.0968H61.9355V61.9355Z" fill="#0098CE"/>
<path d="M12.3871 6.19355H28.9032V8.25806H26.8387V17.5484H28.9032V21.6774H20.6451V27.871H43.3548V21.6774H35.0967V17.5484H37.1613V8.25806H35.0967V6.19355H51.6129C53.3202 6.19355 54.7096 4.80413 54.7096 3.09677C54.7096 1.38942 53.3202 0 51.6129 0H12.3871C10.6797 0 9.29028 1.38942 9.29028 3.09677C9.29028 4.80413 10.6797 6.19355 12.3871 6.19355ZM41.2903 23.7419V25.8064H22.7096V23.7419H41.2903ZM30.9677 21.6774V17.5484H33.0322V21.6774H30.9677ZM35.0967 15.4839H28.9032V10.3226H35.0967V15.4839ZM30.9677 8.25806V6.19355H33.0322V8.25806H30.9677ZM12.3871 2.06452H51.6129C52.1827 2.06452 52.6451 2.528 52.6451 3.09677C52.6451 3.66555 52.1827 4.12903 51.6129 4.12903H12.3871C11.8173 4.12903 11.3548 3.66555 11.3548 3.09677C11.3548 2.528 11.8173 2.06452 12.3871 2.06452Z" fill="#0098CE"/>
<path d="M59.8709 37.1613H57.8064V39.2258H59.8709V37.1613Z" fill="#0098CE"/>
<path d="M59.8709 47.4839H57.8064V49.5484H59.8709V47.4839Z" fill="#0098CE"/>
<path d="M59.8709 57.8065H57.8064V59.871H59.8709V57.8065Z" fill="#0098CE"/>
<path d="M6.19354 37.1613H4.12903V39.2258H6.19354V37.1613Z" fill="#0098CE"/>
<path d="M6.19354 47.4839H4.12903V49.5484H6.19354V47.4839Z" fill="#0098CE"/>
<path d="M6.19354 57.8065H4.12903V59.871H6.19354V57.8065Z" fill="#0098CE"/>
<path d="M36.1291 46.4516H22.7097V48.5161H36.1291V46.4516Z" fill="#0098CE"/>
<path d="M40.2581 46.4516H38.1936V48.5161H40.2581V46.4516Z" fill="#0098CE"/>
</svg>
