<svg width="64" height="64" viewBox="0 0 64 64" fill="none" xmlns="http://www.w3.org/2000/svg">
<path d="M63.9999 61.9355H61.9354V64H63.9999V61.9355Z" fill="#0098CE"/>
<path d="M52.4346 13.7074L58.2441 23.7419H61.6815L63.4932 17.4059C63.8297 16.2271 64 15.0059 64 13.7796C64 9.97264 62.3566 6.35252 59.4921 3.84516L55.0978 0H49.121L46.1935 2.92748L48.384 6.71174L21.7135 22.3463C20.7752 22.8955 20.1105 23.7791 19.8421 24.833C19.5726 25.887 19.7337 26.9791 20.2932 27.9112C20.8506 28.8413 21.7321 29.4637 22.7107 29.727V42.3226H19.2475L2.06452 56.2828V61.9355H0V64H59.871V61.9355H50.5806V58.8387L46.3308 24.7742H44.3871V18.4248L52.4346 13.7074ZM46.4516 42.3876L48.5161 58.9037V61.9355H46.4516V42.3876ZM49.9757 2.06452H54.3215L58.1326 5.39871C60.5492 7.51381 61.9355 10.5683 61.9355 13.7796C61.9355 14.815 61.791 15.8452 61.5071 16.8403L60.1249 21.6774H59.4333L48.7742 3.26606L49.9757 2.06452ZM13.4194 61.9355H11.3548V58.8387H13.4194V61.9355ZM19.6129 61.9355H15.4839V56.7742H9.29032V61.9355H4.12903V57.2655L19.9794 44.3871H29.9355V48.5161H19.6129V61.9355ZM24.7742 42.3226V29.7414C25.1272 29.6506 25.473 29.5123 25.8013 29.3192L26.8387 28.7112V42.3226H24.7742ZM32 61.9355H21.6774V50.5806H32V61.9355ZM40.2581 61.9355H38.1935V58.9027L40.2581 42.3866V61.9355ZM36.1373 58.7107L36.1311 61.9355H34.0645V48.5161H32V42.3226H28.9032V27.5014L42.3226 19.6346V24.7742H40.3788L36.1373 58.7107ZM44.3871 61.9355H42.3226V57.8064H44.3871V61.9355ZM44.3871 55.7419H42.3226V51.6129H44.3871V55.7419ZM44.3871 49.5484H42.3226V45.4194H44.3871V49.5484ZM44.3871 43.3548H42.3226V39.2258H44.3871V43.3548ZM44.3871 37.1613H42.3226V33.0323H44.3871V37.1613ZM44.3871 30.9677H42.3226V26.8387H44.3871V30.9677ZM24.7577 27.5396C23.8245 28.0867 22.6168 27.7739 22.0625 26.8501C21.7879 26.3948 21.7105 25.8591 21.8415 25.344C21.9737 24.8289 22.2978 24.3964 22.7582 24.127L49.4183 8.49858L51.4003 11.9215L24.7577 27.5396Z" fill="#0098CE"/>
<path d="M14.4516 44.3871C16.159 44.3871 17.5484 42.9977 17.5484 41.2903C17.5484 39.583 16.159 38.1935 14.4516 38.1935C12.7443 38.1935 11.3549 39.583 11.3549 41.2903C11.3549 42.9977 12.7443 44.3871 14.4516 44.3871ZM14.4516 40.2581C15.0214 40.2581 15.4839 40.7205 15.4839 41.2903C15.4839 41.8601 15.0214 42.3226 14.4516 42.3226C13.8818 42.3226 13.4194 41.8601 13.4194 41.2903C13.4194 40.7205 13.8818 40.2581 14.4516 40.2581Z" fill="#0098CE"/>
<path d="M4.129 52.6452C5.83636 52.6452 7.22577 51.2557 7.22577 49.5484C7.22577 47.841 5.83636 46.4516 4.129 46.4516C2.42165 46.4516 1.03223 47.841 1.03223 49.5484C1.03223 51.2557 2.42165 52.6452 4.129 52.6452ZM4.129 48.5161C4.69881 48.5161 5.16126 48.9786 5.16126 49.5484C5.16126 50.1182 4.69881 50.5806 4.129 50.5806C3.55919 50.5806 3.09674 50.1182 3.09674 49.5484C3.09674 48.9786 3.55919 48.5161 4.129 48.5161Z" fill="#0098CE"/>
<path d="M29.9355 52.6452H27.871V54.7097H29.9355V52.6452Z" fill="#0098CE"/>
<path d="M25.8065 52.6452H23.7419V54.7097H25.8065V52.6452Z" fill="#0098CE"/>
<path d="M33.0323 27.871H30.9678V29.9355H33.0323V27.871Z" fill="#0098CE"/>
<path d="M33.0323 32H30.9678V34.0645H33.0323V32Z" fill="#0098CE"/>
</svg>
