<svg width="64" height="64" viewBox="0 0 64 64" fill="none" xmlns="http://www.w3.org/2000/svg">
<path d="M64 28.9032V26.8387H61.9355V7.22581H58.8387V5.16129C58.8387 2.31535 56.5234 0 53.6774 0H51.6129C48.767 0 46.4516 2.31535 46.4516 5.16129V15.4839H40.2581V17.5484H22.7097C19.8637 17.5484 17.5484 19.8637 17.5484 22.7097V24.7742H13.4194V27.6655C12.3334 28.0237 11.2981 28.4975 10.3226 29.0653V17.5484H12.3871V11.3548H10.3226V6.19355H2.06452V11.3548H0V17.5484H2.06452V39.2258H1.03226V47.4839H2.06452V61.9355H0V64H64V61.9355H61.9355V28.9032H64ZM2.06452 13.4194H3.09677H4.12903H6.19355V11.3548H4.12903V8.25806H8.25806V13.4194H10.3226V15.4839H8.25806V30.4939C6.58271 31.8452 5.17574 33.5123 4.12903 35.3972V17.5484H6.19355V15.4839H4.12903H3.09677H2.06452V13.4194ZM8.25806 56.7742V61.9355H4.12903V51.3187C5.33058 53.4895 6.99768 55.3497 8.98993 56.7742H8.25806ZM17.5484 61.9355H10.3226V57.6403C12.4872 58.8955 14.9502 59.6614 17.5484 59.8255V61.9355ZM33.0323 61.9355H19.6129V59.8255C25.312 59.4663 30.3453 56.1714 33.0323 51.3187V61.9355ZM34.0645 45.4194H29.9355V47.4839H32.4325C30.7283 53.2077 25.5938 57.3306 19.6129 57.761V49.5484H17.5484V57.761C11.5675 57.3306 6.432 53.2077 4.72877 47.4839H27.871V45.4194H3.09677V41.2903H7.22581V39.2258H4.73703C6.14813 34.5228 9.9489 30.7448 14.7262 29.4255L15.4839 29.217V26.8387H21.6774V29.217L22.4351 29.4255C27.2124 30.7448 31.0132 34.5228 32.4243 39.2258H9.29032V41.2903H34.0645V45.4194ZM40.2581 39.2258H38.1935V41.2903H40.2581V61.9355H35.0968V47.4839H36.129V39.2258H34.5672C33.4286 34.8305 30.4743 31.0854 26.5507 28.9032H40.2581V39.2258ZM40.2581 21.6774H38.1935V23.7419H40.2581V26.8387H23.7419V24.7742H19.6129V22.7097C19.6129 21.0023 21.0023 19.6129 22.7097 19.6129H40.2581V21.6774ZM53.6774 61.9355H42.3226V41.2903H53.6774V61.9355ZM53.6774 26.8387H51.6129V28.9032H53.6774V39.2258H42.3226V23.7419H53.6774V26.8387ZM53.6774 21.6774H42.3226V17.5484H53.6774V21.6774ZM53.6774 15.4839H48.5161V5.16129C48.5161 3.45394 49.9055 2.06452 51.6129 2.06452H53.6774C55.3848 2.06452 56.7742 3.45394 56.7742 5.16129V7.22581H53.6774V15.4839ZM59.871 61.9355H55.7419V28.9032H59.871V61.9355ZM59.871 26.8387H55.7419V9.29032H59.871V26.8387Z" fill="#0098CE"/>
<path d="M38.1935 30.9677H36.129V33.0323H38.1935V30.9677Z" fill="#0098CE"/>
<path d="M34.0645 30.9677H32V33.0323H34.0645V30.9677Z" fill="#0098CE"/>
<path d="M51.6129 43.3548H49.5483V45.4194H51.6129V43.3548Z" fill="#0098CE"/>
<path d="M47.4838 43.3548H45.4193V45.4194H47.4838V43.3548Z" fill="#0098CE"/>
<path d="M19.6129 28.9032H17.5483V30.9677H19.6129V28.9032Z" fill="#0098CE"/>
</svg>
