<svg width="18" height="18" viewBox="0 0 18 18" fill="none" xmlns="http://www.w3.org/2000/svg">
<path d="M17.9885 0.68511C17.9588 0.510234 17.8797 0.363341 17.752 0.243937C17.5986 0.0822237 17.4069 0.00109863 17.1768 0.00109863C17.0404 0.00109863 16.9169 0.030737 16.806 0.0905063L0.444726 8.27129C0.274104 8.35662 0.150715 8.48417 0.0739326 8.65466C-0.00276017 8.82519 -0.0197284 9.00423 0.0227593 9.19146C0.0653365 9.37897 0.161326 9.53002 0.310323 9.64558C0.459411 9.76046 0.62775 9.81812 0.815206 9.81812H8.17757V17.1808C8.17757 17.3685 8.23519 17.5367 8.35016 17.6859C8.46532 17.835 8.6166 17.9311 8.80405 17.9735C8.88925 17.9902 8.95327 17.999 8.99581 17.999C9.3366 17.999 9.57962 17.8499 9.72441 17.5514L17.9055 1.18995C17.9907 1.0281 18.0181 0.859806 17.9885 0.68511Z" fill="white"/>
</svg>
