<svg width="20" height="20" viewBox="0 0 20 20" fill="none" xmlns="http://www.w3.org/2000/svg">
<g clip-path="url(#clip0)">
<path d="M19.2205 4.17078C18.4985 3.31259 17.1656 2.96252 14.6201 2.96252H5.37974C2.77594 2.96252 1.42045 3.33517 0.701226 4.24885C0 5.13969 0 6.45227 0 8.26891V11.7314C0 15.2508 0.832 17.0378 5.37974 17.0378H14.6201C16.8276 17.0378 18.0508 16.7288 18.8422 15.9715C19.6537 15.1948 20 13.9268 20 11.7314V8.26891C20 6.35311 19.9457 5.03278 19.2205 4.17078ZM12.8401 10.4782L8.64406 12.6712C8.55026 12.7202 8.44768 12.7445 8.34523 12.7445C8.22923 12.7445 8.11348 12.7133 8.01097 12.6512C7.81793 12.5343 7.70006 12.325 7.70006 12.0994V7.72749C7.70006 7.5022 7.81761 7.29317 8.01026 7.17614C8.20297 7.0591 8.44265 7.05111 8.64258 7.15498L12.8386 9.33381C13.0521 9.44465 13.1861 9.66504 13.1865 9.90549C13.1867 10.1461 13.0532 10.3668 12.8401 10.4782Z" fill="white"/>
</g>
<defs>
<clipPath id="clip0">
<rect width="20" height="20" fill="white"/>
</clipPath>
</defs>
</svg>
