<svg width="98" height="60" viewBox="0 0 98 60" fill="none" xmlns="http://www.w3.org/2000/svg">
<path d="M24.8463 59.12C20.0463 59.12 15.7796 57.9733 12.0463 55.68C8.31292 53.3867 5.37958 50.0533 3.24625 45.68C1.16625 41.2533 0.12625 36.0267 0.12625 30C0.12625 23.9733 1.16625 18.7733 3.24625 14.4C5.37958 9.97333 8.31292 6.61333 12.0463 4.32C15.7796 2.02666 20.0463 0.879996 24.8463 0.879996C29.5929 0.879996 33.8329 2.02666 37.5663 4.32C41.2996 6.61333 44.2063 9.97333 46.2863 14.4C48.4196 18.7733 49.4863 23.9733 49.4863 30C49.4863 36.0267 48.4196 41.2533 46.2863 45.68C44.2063 50.0533 41.2996 53.3867 37.5663 55.68C33.8329 57.9733 29.5929 59.12 24.8463 59.12ZM24.8463 46.16C27.5129 46.16 29.6196 44.88 31.1663 42.32C32.7663 39.7067 33.5663 35.6 33.5663 30C33.5663 24.4 32.7663 20.32 31.1663 17.76C29.6196 15.1467 27.5129 13.84 24.8463 13.84C22.1263 13.84 19.9663 15.1467 18.3663 17.76C16.8196 20.32 16.0463 24.4 16.0463 30C16.0463 35.6 16.8196 39.7067 18.3663 42.32C19.9663 44.88 22.1263 46.16 24.8463 46.16ZM82.8306 24.4C87.4706 25.36 91.0173 27.28 93.4706 30.16C95.9773 32.9867 97.2306 36.4267 97.2306 40.48C97.2306 43.7867 96.324 46.8533 94.5106 49.68C92.7506 52.5067 90.0306 54.8 86.3506 56.56C82.724 58.2667 78.2173 59.12 72.8306 59.12C68.884 59.12 64.964 58.64 61.0706 57.68C57.2306 56.72 53.8973 55.36 51.0706 53.6L56.8306 41.68C59.0173 43.1733 61.4706 44.32 64.1906 45.12C66.964 45.92 69.684 46.32 72.3506 46.32C75.0706 46.32 77.2306 45.8133 78.8306 44.8C80.4306 43.7867 81.2306 42.3467 81.2306 40.48C81.2306 36.8533 78.3773 35.04 72.6706 35.04H66.0306V25.04L76.0306 14.24H53.9506V2H94.4306V11.92L82.8306 24.4Z" fill="url(#paint0_linear)"/>
<defs>
<linearGradient id="paint0_linear" x1="48.5" y1="-19" x2="48.5" y2="79" gradientUnits="userSpaceOnUse">
<stop stop-color="#EDEDED"/>
<stop offset="1" stop-color="#EDEDED" stop-opacity="0"/>
</linearGradient>
</defs>
</svg>
