<svg width="723" height="234" viewBox="0 0 723 234" fill="none" xmlns="http://www.w3.org/2000/svg">
<path d="M185.938 178.76V229H11.5375V189.32L95.3775 110.92C103.484 103.24 108.924 96.7333 111.698 91.4C114.471 85.8533 115.858 80.3067 115.858 74.76C115.858 67.5067 113.404 61.8533 108.498 57.8C103.591 53.7467 96.4442 51.72 87.0575 51.72C78.7375 51.72 71.0575 53.64 64.0175 57.48C57.1908 61.1067 51.5375 66.44 47.0575 73.48L0.0175 47.24C8.76417 32.7333 21.0308 21.32 36.8175 13C52.6042 4.67999 71.2708 0.519985 92.8175 0.519985C109.884 0.519985 124.924 3.29332 137.938 8.83999C151.164 14.3867 161.404 22.3867 168.658 32.84C176.124 43.08 179.858 55.0267 179.858 68.68C179.858 80.84 177.191 92.36 171.858 103.24C166.738 113.907 156.711 126.067 141.778 139.72L99.5375 178.76H185.938ZM302.948 233.48C283.748 233.48 266.681 228.893 251.748 219.72C236.814 210.547 225.081 197.213 216.548 179.72C208.228 162.013 204.068 141.107 204.068 117C204.068 92.8933 208.228 72.0933 216.548 54.6C225.081 36.8933 236.814 23.4533 251.748 14.28C266.681 5.10666 283.748 0.519985 302.948 0.519985C321.934 0.519985 338.894 5.10666 353.828 14.28C368.761 23.4533 380.388 36.8933 388.708 54.6C397.241 72.0933 401.508 92.8933 401.508 117C401.508 141.107 397.241 162.013 388.708 179.72C380.388 197.213 368.761 210.547 353.828 219.72C338.894 228.893 321.934 233.48 302.948 233.48ZM302.948 181.64C313.614 181.64 322.041 176.52 328.228 166.28C334.628 155.827 337.828 139.4 337.828 117C337.828 94.6 334.628 78.28 328.228 68.04C322.041 57.5867 313.614 52.36 302.948 52.36C292.068 52.36 283.428 57.5867 277.028 68.04C270.841 78.28 267.748 94.6 267.748 117C267.748 139.4 270.841 155.827 277.028 166.28C283.428 176.52 292.068 181.64 302.948 181.64ZM516.63 4.99998V229H453.27V53.96H411.67V4.99998H516.63ZM723.438 178.76V229H549.038V189.32L632.878 110.92C640.984 103.24 646.424 96.7333 649.198 91.4C651.971 85.8533 653.358 80.3067 653.358 74.76C653.358 67.5067 650.904 61.8533 645.998 57.8C641.091 53.7467 633.944 51.72 624.558 51.72C616.238 51.72 608.558 53.64 601.518 57.48C594.691 61.1067 589.038 66.44 584.558 73.48L537.517 47.24C546.264 32.7333 558.531 21.32 574.318 13C590.104 4.67999 608.771 0.519985 630.318 0.519985C647.384 0.519985 662.424 3.29332 675.438 8.83999C688.664 14.3867 698.904 22.3867 706.158 32.84C713.624 43.08 717.358 55.0267 717.358 68.68C717.358 80.84 714.691 92.36 709.358 103.24C704.238 113.907 694.211 126.067 679.278 139.72L637.038 178.76H723.438Z" fill="url(#paint0_linear)" fill-opacity="0.5"/>
<defs>
<linearGradient id="paint0_linear" x1="451.5" y1="227" x2="451.5" y2="-8.5" gradientUnits="userSpaceOnUse">
<stop stop-color="#EDEDED"/>
<stop offset="1" stop-color="#EDEDED" stop-opacity="0"/>
</linearGradient>
</defs>
</svg>
