<svg width="226" height="235" viewBox="0 0 226 235" fill="none" xmlns="http://www.w3.org/2000/svg">
<path fill-rule="evenodd" clip-rule="evenodd" d="M209.943 209.981C186.716 233.207 155.836 245.998 122.99 245.998C93.2091 245.998 64.4747 235.214 42.0807 215.635C19.9015 196.242 5.4047 169.58 1.26086 140.562C0.885606 137.934 2.71065 135.502 5.33755 135.127C7.96494 134.751 10.398 136.577 10.7727 139.204C16.5128 179.397 43.4805 212.415 79.2579 227.519C77.1896 225.577 75.7094 223.157 74.9883 220.467L73.8503 216.22C73.5164 214.976 73.6999 213.666 74.33 212.574C74.5032 212.274 74.7099 211.991 74.949 211.73C76.0578 210.521 77.7085 209.96 79.3256 210.246L98.1466 213.57C98.4371 213.621 98.7298 213.619 99.0186 213.566L107.979 211.905C108.685 211.774 109.295 211.343 109.654 210.721L110.801 208.735L110.341 208.764C108.055 208.912 105.984 207.425 105.391 205.213C103.072 196.555 102.649 187.309 104.168 178.475L104.822 174.672C105.229 172.291 107.346 170.583 109.76 170.686L136.602 171.827C137.375 171.86 138.13 172.079 138.8 172.466L141.716 174.149L150.616 171.541L156.306 166.658C158.32 164.93 161.352 165.161 163.081 167.175C164.809 169.188 164.579 172.221 162.564 173.95L156.089 179.507C155.571 179.951 154.965 180.28 154.31 180.472L142.445 183.948C141.186 184.318 139.829 184.155 138.693 183.499L135.017 181.377L113.577 180.466C112.576 186.545 112.658 192.845 113.804 198.913L115.124 198.828C117.689 198.662 120.127 199.916 121.483 202.1C122.839 204.284 122.884 207.024 121.598 209.252L117.976 215.526C116.21 218.585 113.206 220.708 109.732 221.352L100.771 223.013C99.3473 223.278 97.9017 223.284 96.4752 223.031L86.9137 221.342L86.9411 221.36L86.9724 221.379L87.0125 221.403C90.0664 223.235 92.234 226.285 92.959 229.773L93.5135 232.445C102.955 235.015 112.843 236.391 122.99 236.391C161.083 236.391 194.849 217.504 215.413 188.603L207.311 167.967C206.981 167.126 206.894 166.208 207.062 165.321L213.167 132.949L201.892 118.298L189.615 119.485C193.143 126.059 193.127 134.146 189.299 140.777L187.933 143.143C186.607 145.44 183.668 146.228 181.371 144.901C179.073 143.575 178.286 140.636 179.612 138.339L180.978 135.973C183.556 131.507 183.05 125.861 179.717 121.926L179.491 121.658C178.566 123.775 177.479 125.826 176.494 127.68C175.867 128.861 175.274 129.977 174.847 130.884C174.097 132.481 170.028 140.418 163.769 139.904C162.66 139.813 161.038 139.401 159.55 137.963L159.45 138.012C157.847 138.805 155.241 140.094 153.631 141.195C154.47 142.281 154.71 143.446 154.769 143.827C154.989 145.267 154.773 146.909 154.044 149.322C153.772 150.223 153.241 151.025 152.516 151.627C151.651 152.347 150.475 153.516 149.23 154.755L149.227 154.758C145.524 158.44 141.329 162.614 137.032 163.633C132.251 164.766 126.821 163.918 122.029 163.169L122.027 163.169C120.216 162.886 118.506 162.619 117.037 162.493C116.23 162.424 115.407 162.339 114.572 162.254L114.523 162.249L114.522 162.249C110.246 161.811 105.824 161.358 102.655 162.96C101.937 163.323 100.6 164.991 99.7123 166.097L99.7085 166.102C97.4631 168.903 94.668 172.39 90.308 171.879C85.8613 171.359 83.7017 166.805 82.9914 165.307L82.9913 165.306C81.3693 161.885 80.5159 158.178 79.6906 154.592C77.7869 146.321 76.4467 142.58 71.6084 141.483C65.8581 140.179 60.4275 138.946 57.5966 129.923C57.4295 129.389 57.2802 128.897 57.1413 128.435L57.1395 128.429C56.3392 125.779 56.0972 124.977 54.341 123.053C52.0278 120.519 51.2663 118.229 50.6543 116.389L50.6536 116.386L50.6527 116.384C50.3484 115.47 50.1079 114.747 49.6864 114.008C49.4114 113.526 48.8508 113.033 48.1407 112.408L48.1407 112.408L48.1346 112.403C46.7004 111.142 44.7373 109.416 43.563 106.33C41.6924 101.416 39.7369 91.9418 43.1995 85.9435C43.9107 84.7108 44.8501 83.6266 46.0667 82.7572C48.3897 81.0975 52.5512 79.7608 65.8122 82.4289C67.46 82.7609 69.43 82.9533 71.517 83.1571H71.517L71.5215 83.1575C77.9528 83.7859 85.243 84.4986 89.9802 89.7419C90.2554 90.0455 90.5224 90.344 90.7841 90.6365C93.8432 94.0537 95.2392 95.6131 99.0984 96.1108C99.7061 96.1893 100.819 95.9474 101.894 95.7134L101.895 95.7133C104.059 95.2431 106.753 94.6578 109.669 95.5127C111.491 96.0477 112.885 96.8646 114.006 97.5221C115.768 98.554 115.896 98.5598 116.738 98.3041C118.47 97.7782 119.034 96.5971 120.211 92.5204C120.638 91.0417 121.079 89.5138 121.739 87.9829C125.785 78.5839 134.084 72.3801 143.931 71.3961C154.115 70.3788 164.175 75.1354 170.184 83.81C172.915 87.7543 174.285 91.8772 175.609 95.8642C175.861 96.6259 176.116 97.3946 176.384 98.1701C176.692 99.0615 177.344 100.471 178.035 101.963L178.035 101.964C179.61 105.369 180.845 108.17 181.384 110.627L203.614 108.478C205.261 108.319 206.874 109.018 207.884 110.33L222.094 128.794C222.929 129.878 223.262 131.269 223.007 132.614L216.759 165.742L221.79 178.553C231.054 162.132 236.351 143.189 236.351 123.029C236.351 117.534 235.95 112.133 235.191 106.845C231.16 108.995 226.505 109.887 221.888 109.271C214.06 108.226 207.513 102.671 205.206 95.1177L202.949 87.7271L189.714 64.9826C189.367 64.3853 189.152 63.7199 189.085 63.032L188.079 52.7076L177.65 53.489C176.016 53.6114 174.433 52.8932 173.449 51.5831C172.466 50.2732 172.217 48.5521 172.791 47.0175C172.805 46.9796 174.237 43.1502 175.744 39.3404C177.334 35.3235 178.327 32.9079 179.201 31.3934C180.152 29.7457 180.963 29.1675 182.252 28.7567C182.701 28.614 183.166 28.5399 183.632 28.5319C183.903 28.4646 184.325 28.3451 184.956 28.1516C181.307 25.7593 177.512 23.5727 173.587 21.6071L170.908 34.2055C170.58 35.7461 169.519 37.0279 168.067 37.6369L143.828 47.803L136.571 56.1349C133.757 59.3651 129.686 61.234 125.402 61.2633C121.118 61.2925 117.022 59.4789 114.165 56.2873C113.404 55.4383 112.413 54.8637 111.298 54.6267L106.48 53.6029C98.4194 51.8882 93.2553 43.9357 94.9689 35.8746L95.4226 33.7415L78.1161 18.7791C43.2477 33.6572 17.2876 65.5285 11.0221 105.196C10.6101 107.817 8.14866 109.606 5.52753 109.193C2.9064 108.779 1.11714 106.319 1.53126 103.698C3.88543 88.7956 8.98558 74.5365 16.4485 61.6104C23.3122 49.7221 32.1725 38.962 42.7372 29.854C65.025 10.6401 93.5262 0.0589394 122.99 0.059082C155.836 0.0592682 186.717 12.8508 209.942 36.0762C233.168 59.3016 245.96 90.1824 245.959 123.029C245.959 155.875 233.168 186.756 209.943 209.981ZM139.082 39.3734L162.033 29.748L164.618 17.585C151.725 12.4766 137.679 9.66672 122.989 9.66735C110.948 9.66718 99.3246 11.5216 88.4043 14.9718L103.855 28.3293C105.179 29.4739 105.776 31.249 105.412 32.9622L104.368 37.8726C103.756 40.7512 105.601 43.5924 108.48 44.2044L113.297 45.228C116.419 45.8913 119.194 47.4995 121.324 49.8774C122.36 51.0338 123.785 51.6654 125.337 51.6546C126.89 51.6441 128.306 50.9937 129.326 49.8228L137.317 40.6485C137.8 40.0939 138.403 39.6579 139.082 39.3734ZM211.977 84.3894L214.396 92.3117C215.607 96.2791 219.047 99.1982 223.159 99.7468C226.814 100.235 230.516 99.0515 233.225 96.5683C227.336 72.035 213.451 50.5815 194.488 35.1275C191.512 36.1412 189.491 36.8071 188.001 37.2657C187.603 37.3882 187.218 37.5065 186.843 37.6155C186.248 38.9663 185.406 41.0283 184.493 43.3409L192.046 42.7752C194.65 42.5802 196.933 44.5007 197.186 47.1003L198.547 61.0571L211.535 83.3755C211.721 83.6953 211.869 84.0357 211.977 84.3894ZM168.007 123.172L168.007 123.172C169.711 119.963 172.045 115.568 172.072 113.109C172.032 111.871 170.266 108.056 169.317 106.004L169.315 106.001C168.519 104.282 167.768 102.658 167.301 101.307C167.033 100.528 166.776 99.7563 166.522 98.9913L166.522 98.9911L166.489 98.8934C165.278 95.2448 164.231 92.0932 162.285 89.2837C158.263 83.4787 151.596 80.289 144.886 80.9593C138.471 81.5998 133.253 85.5452 130.563 91.786C130.145 92.7556 129.807 93.9256 129.449 95.164L129.442 95.1874C128.27 99.2483 126.497 105.384 119.529 107.5C114.585 109.001 111.313 107.083 109.147 105.813L109.147 105.813C108.344 105.342 107.65 104.936 106.963 104.734C106.399 104.569 105.09 104.853 103.934 105.104L103.926 105.106C102.142 105.493 100.12 105.932 97.8689 105.641C90.4645 104.686 87.1423 100.976 83.6245 97.0468C83.3727 96.765 83.1149 96.4775 82.8503 96.1843C80.6066 93.7005 75.5127 93.2023 70.5865 92.7211L70.584 92.7208C68.3502 92.5026 66.0403 92.277 63.9159 91.8491C55.3007 90.1151 52.2879 90.52 51.5556 90.6891C51.3077 91.0647 50.8182 92.3045 50.9308 94.9771C51.0528 97.8531 51.8284 101.034 52.543 102.912C52.8568 103.736 53.3932 104.232 54.4803 105.189C55.5854 106.161 56.9606 107.371 58.0311 109.247C58.9244 110.813 59.3932 112.222 59.7696 113.354L59.7697 113.354C60.2399 114.769 60.499 115.548 61.4366 116.576C64.6647 120.113 65.4033 122.56 66.3383 125.658L66.3385 125.659C66.4683 126.09 66.6069 126.549 66.763 127.046C67.9068 130.694 68.4303 130.91 73.732 132.113C84.9606 134.66 87.2297 144.517 89.0526 152.437L89.0538 152.442C89.7689 155.549 90.4457 158.49 91.544 160.915C91.7805 160.626 92.0099 160.341 92.21 160.091L92.2125 160.088C93.8666 158.025 95.7408 155.687 98.3167 154.385C104 151.51 110.11 152.137 115.501 152.689L115.68 152.708L115.682 152.708C116.418 152.783 117.146 152.857 117.86 152.919C119.659 153.074 121.528 153.365 123.508 153.675L123.514 153.675L123.514 153.676L123.514 153.676C127.431 154.287 131.869 154.98 134.815 154.282C136.473 153.889 140.362 150.02 142.452 147.941L142.495 147.898L142.498 147.895C143.09 147.307 143.667 146.733 144.227 146.191C143.84 145.575 143.607 144.912 143.506 144.291C143.491 144.225 143.473 144.158 143.454 144.091C143.446 144.065 143.439 144.039 143.431 144.012L143.428 144.001C143.096 142.803 142.323 140.023 144.34 137.001C146.56 133.665 151.145 131.398 155.19 129.398L155.19 129.397C156.621 128.69 157.973 128.022 158.841 127.483C160.122 126.687 161.703 126.538 163.11 127.083C163.91 127.393 164.6 127.906 165.123 128.557C165.508 127.996 165.877 127.378 166.154 126.789C166.679 125.674 167.324 124.459 168.007 123.173L168.007 123.172ZM9.62932 123.018C9.63359 125.673 7.4875 127.827 4.8356 127.833C2.18245 127.838 0.026736 125.692 0.0210876 123.039L0.0211927 122.825C0.019377 121.948 0.252669 121.124 0.661548 120.416C1.48988 118.981 3.03902 118.014 4.81492 118.011C7.46806 118.006 9.62378 120.152 9.62943 122.805L9.62932 123.018ZM49.2877 165.902L57.989 168.256C59.8892 168.77 61.9106 168.073 63.0899 166.498C64.2662 164.918 64.3677 162.785 63.339 161.107C62.7617 160.165 62.1084 159.241 61.4767 158.347C60.4138 156.843 59.3146 155.287 58.9027 154.091C58.6714 153.419 58.7695 152.093 58.8645 150.812C59.0916 147.749 59.4026 143.554 56.1308 139.994C54.1018 137.786 51.9734 136.944 50.4195 136.33C49.0724 135.797 48.6176 135.591 48.029 134.808L47.956 134.71C45.6129 131.591 41.2497 125.787 34.3361 126.402C29.4025 126.841 27.0033 128.912 25.8403 130.926C25.6121 131.319 25.4318 131.711 25.2893 132.087C23.5326 136.732 26.1053 142.472 33.3863 150.152L47.0552 164.569C47.6631 165.21 48.4353 165.671 49.2877 165.902ZM40.359 143.541C36.6466 139.626 35.2342 137.243 34.6989 136.029C34.844 136.008 35.0062 135.989 35.1879 135.973C36.7795 135.831 38.8826 138.63 40.2748 140.482L40.2752 140.483L40.3483 140.581C42.5912 143.566 45.0711 144.547 46.8826 145.264L46.8827 145.264L46.8866 145.266C48.047 145.724 48.5391 145.933 49.0557 146.496C49.4804 146.958 49.421 148.224 49.282 150.102L49.2806 150.122C49.2196 150.949 49.1525 151.859 49.1533 152.817L40.359 143.541ZM176.975 161.58L176.715 161.804C174.702 163.534 171.669 163.304 169.94 161.292C168.574 159.702 168.43 157.475 169.422 155.758C169.686 155.3 170.03 154.88 170.453 154.516L170.713 154.293C172.725 152.563 175.758 152.793 177.488 154.805C179.217 156.818 178.985 159.852 176.975 161.58Z" fill="url(#paint0_linear)"/>
<defs>
<linearGradient id="paint0_linear" x1="203" y1="184.5" x2="41.5" y2="23" gradientUnits="userSpaceOnUse">
<stop stop-color="#E5E5E5"/>
<stop offset="1" stop-color="#E5E5E5" stop-opacity="0"/>
</linearGradient>
</defs>
</svg>
